<svg width="96" height="102" viewBox="0 0 96 102" fill="none" xmlns="http://www.w3.org/2000/svg">
<path d="M1.0223 90.1785V78.3581H3.38637V83.278H7.84296V78.3581H10.223V90.1785H7.84296V85.4024H3.38637V90.1785H1.0223ZM15.1288 90.2583C14.8733 90.2583 14.5804 90.2317 14.2503 90.1785C13.9202 90.1359 13.6007 90.0294 13.2919 89.859C12.9937 89.6886 12.7435 89.4331 12.5411 89.0923C12.3495 88.7409 12.2536 88.2617 12.2536 87.6547V81.0577C12.2536 80.5359 12.3335 80.0992 12.4932 79.7478C12.653 79.3964 12.8659 79.1195 13.1322 78.9172C13.3984 78.7149 13.6912 78.5711 14.0107 78.4859C14.3302 78.4007 14.6443 78.3581 14.9531 78.3581C15.7518 78.3581 16.4546 78.3688 17.0616 78.3901C17.6793 78.4114 18.233 78.438 18.7229 78.47C19.2127 78.4913 19.66 78.5232 20.0646 78.5658V80.5465H15.656C15.3258 80.5465 15.0703 80.6264 14.8892 80.7861C14.7082 80.9458 14.6177 81.1908 14.6177 81.5209V83.23L19.2979 83.3578V85.2267L14.6177 85.3545V86.9838C14.6177 87.2607 14.6603 87.479 14.7455 87.6387C14.8413 87.7878 14.9638 87.8943 15.1129 87.9582C15.2726 88.0114 15.4377 88.038 15.608 88.038H20.0646V90.0187C19.5961 90.072 19.0743 90.1146 18.4992 90.1465C17.9348 90.1785 17.3598 90.2051 16.7741 90.2264C16.1991 90.2477 15.6506 90.2583 15.1288 90.2583ZM24.58 90.1785C23.973 90.1785 23.4565 90.088 23.0306 89.9069C22.6153 89.7153 22.3011 89.4171 22.0881 89.0124C21.8858 88.5971 21.7846 88.054 21.7846 87.3831V78.3581H24.1487V86.9998C24.1487 87.2553 24.1913 87.463 24.2765 87.6227C24.3723 87.7825 24.5001 87.8943 24.6599 87.9582C24.8196 88.0114 25.0006 88.038 25.203 88.038H28.9407V90.1785H24.58ZM32.2472 90.1785V80.4826H29.0046V78.3581H37.8699V80.4826H34.6113V90.1785H32.2472ZM39.1464 90.1785V78.3581H41.5105V83.278H45.9671V78.3581H48.3471V90.1785H45.9671V85.4024H41.5105V90.1785H39.1464Z" fill="#2E3191"/>
<path d="M53.9398 90.2743C53.631 90.2743 53.3115 90.2637 52.9814 90.2424C52.6619 90.2317 52.3318 90.2104 51.991 90.1785C51.6609 90.1359 51.3468 90.0933 51.0486 90.0507C50.7504 89.9974 50.4789 89.9389 50.234 89.875V88.0061C50.5534 88.038 50.9155 88.0647 51.3201 88.086C51.7248 88.1073 52.1454 88.1232 52.582 88.1339C53.0187 88.1445 53.434 88.1499 53.828 88.1499C54.2326 88.1499 54.5787 88.1179 54.8663 88.054C55.1644 87.9795 55.3934 87.857 55.5531 87.6866C55.7128 87.5056 55.7927 87.2607 55.7927 86.9518V86.5206C55.7927 86.1691 55.6862 85.9029 55.4732 85.7219C55.2709 85.5302 54.9781 85.4344 54.5947 85.4344H53.5884C52.4596 85.4344 51.5917 85.1894 50.9847 84.6996C50.3884 84.1991 50.0902 83.3525 50.0902 82.1598V81.5848C50.0902 80.4347 50.4203 79.5934 51.0805 79.061C51.7408 78.5285 52.6832 78.2623 53.9078 78.2623C54.3445 78.2623 54.7757 78.2836 55.2017 78.3262C55.6383 78.3688 56.0536 78.422 56.4476 78.4859C56.8523 78.5392 57.1984 78.5977 57.4859 78.6616V80.5305C56.996 80.4986 56.4476 80.4666 55.8406 80.4347C55.2443 80.4027 54.6905 80.3868 54.1794 80.3868C53.8173 80.3868 53.4925 80.424 53.205 80.4986C52.9281 80.5625 52.7152 80.6903 52.5661 80.8819C52.417 81.0736 52.3424 81.3452 52.3424 81.6966V82.0161C52.3424 82.4314 52.4596 82.7295 52.6939 82.9106C52.9281 83.0916 53.2742 83.1821 53.7321 83.1821H54.8982C55.6117 83.1821 56.1974 83.3152 56.6553 83.5815C57.1238 83.837 57.4699 84.1938 57.6935 84.6517C57.9278 85.1096 58.045 85.6314 58.045 86.2171V86.888C58.045 87.8144 57.8693 88.5226 57.5178 89.0124C57.1771 89.5023 56.6979 89.8377 56.0802 90.0187C55.4732 90.1891 54.7598 90.2743 53.9398 90.2743ZM59.6721 90.1785V78.0067H62.0362V82.4793C62.345 82.2237 62.7444 81.9894 63.2342 81.7765C63.7347 81.5635 64.2459 81.457 64.7677 81.457C65.4172 81.457 65.9337 81.5848 66.3171 81.8403C66.7004 82.0959 66.9773 82.4527 67.1477 82.9106C67.3181 83.3685 67.4033 83.9009 67.4033 84.5079V90.1785H65.0392V84.8114C65.0392 84.5345 64.986 84.3056 64.8795 84.1246C64.773 83.9435 64.6292 83.8104 64.4482 83.7252C64.2672 83.6294 64.0542 83.5815 63.8093 83.5815C63.5856 83.5815 63.3673 83.6134 63.1543 83.6773C62.952 83.7305 62.755 83.8051 62.5633 83.9009C62.3823 83.9968 62.2066 84.1033 62.0362 84.2204V90.1785H59.6721ZM69.4595 80.3388C69.2359 80.3388 69.124 80.2324 69.124 80.0194V78.454C69.124 78.2304 69.2359 78.1185 69.4595 78.1185H71.2805C71.3763 78.1185 71.4508 78.1505 71.5041 78.2144C71.5573 78.2783 71.5839 78.3581 71.5839 78.454V80.0194C71.5839 80.2324 71.4828 80.3388 71.2805 80.3388H69.4595ZM69.172 90.1785V81.6007H71.536V90.1785H69.172ZM76.9625 90.2583C76.0147 90.2583 75.2587 90.1359 74.6943 89.891C74.1299 89.6354 73.7199 89.1881 73.4643 88.5492C73.2194 87.9103 73.0969 87.0264 73.0969 85.8976C73.0969 84.7369 73.2141 83.837 73.4484 83.1981C73.6826 82.5592 74.0766 82.1119 74.6304 81.8563C75.1841 81.6007 75.9349 81.473 76.8826 81.473C77.7346 81.473 78.4161 81.5582 78.9272 81.7285C79.4384 81.8989 79.8058 82.1971 80.0294 82.623C80.2637 83.049 80.3808 83.6507 80.3808 84.428C80.3808 85.0031 80.2637 85.461 80.0294 85.8018C79.8058 86.1319 79.4863 86.3715 79.071 86.5206C78.6557 86.659 78.1658 86.7282 77.6014 86.7282H75.445C75.4663 87.1648 75.5302 87.5162 75.6367 87.7825C75.7538 88.038 75.9615 88.2244 76.2597 88.3415C76.5685 88.448 77.0104 88.5013 77.5855 88.5013H80.0933V89.891C79.678 89.9762 79.2201 90.0613 78.7196 90.1465C78.2297 90.2211 77.644 90.2583 76.9625 90.2583ZM75.4131 85.3226H77.3618C77.6813 85.3226 77.9156 85.2587 78.0647 85.1309C78.2138 85.0031 78.2883 84.7741 78.2883 84.444C78.2883 84.1352 78.2404 83.8903 78.1445 83.7092C78.0487 83.5176 77.8996 83.3844 77.6973 83.3099C77.495 83.2247 77.2234 83.1821 76.8826 83.1821C76.5206 83.1821 76.2331 83.246 76.0201 83.3738C75.8071 83.4909 75.6527 83.7039 75.5568 84.0127C75.461 84.3216 75.4131 84.7582 75.4131 85.3226ZM84.6155 90.2104C84.0085 90.2104 83.5027 90.1146 83.098 89.9229C82.704 89.7206 82.4112 89.4171 82.2195 89.0124C82.0278 88.5971 81.932 88.0647 81.932 87.4151V77.9908H84.2961V87.0637C84.2961 87.3831 84.328 87.6387 84.3919 87.8304C84.4558 88.0114 84.5516 88.1445 84.6794 88.2297C84.8179 88.3149 84.9882 88.3735 85.1906 88.4054L85.8455 88.5013V90.2104H84.6155ZM89.7506 90.2743C89.0797 90.2743 88.5153 90.1359 88.0574 89.859C87.5995 89.5715 87.2534 89.1136 87.0192 88.4853C86.7955 87.8464 86.6837 87.0104 86.6837 85.9775C86.6837 84.9126 86.7796 84.05 86.9712 83.3898C87.1736 82.7295 87.509 82.245 87.9776 81.9362C88.4461 81.6274 89.0904 81.473 89.9103 81.473C90.3044 81.473 90.693 81.5156 91.0764 81.6007C91.4598 81.6753 91.8005 81.7658 92.0987 81.8723V77.9908H94.4787V90.1785H92.4821L92.0987 89.3638C91.9177 89.5342 91.694 89.6886 91.4278 89.8271C91.1722 89.9655 90.9007 90.0773 90.6132 90.1625C90.3257 90.2371 90.0381 90.2743 89.7506 90.2743ZM90.5812 88.3735C90.9007 88.3735 91.1882 88.3202 91.4438 88.2137C91.71 88.1073 91.9283 88.0008 92.0987 87.8943V83.5815C91.8857 83.5069 91.6621 83.4324 91.4278 83.3578C91.1935 83.2833 90.9433 83.246 90.6771 83.246C90.2831 83.246 89.9636 83.3152 89.7187 83.4537C89.4844 83.5921 89.314 83.853 89.2075 84.2364C89.101 84.6091 89.0478 85.1522 89.0478 85.8657C89.0478 86.5259 89.0957 87.0424 89.1915 87.4151C89.298 87.7771 89.4631 88.0274 89.6867 88.1658C89.9103 88.3043 90.2085 88.3735 90.5812 88.3735Z" fill="#404041"/>
<path d="M13.193 100.523C13.1095 100.523 13.035 100.516 12.9696 100.502C12.9042 100.489 12.859 100.477 12.8339 100.464L12.9592 100.03C13.0789 100.061 13.1846 100.072 13.2765 100.063C13.3683 100.055 13.4497 100.014 13.5207 99.9402C13.5931 99.8678 13.6592 99.7502 13.719 99.5874L13.8109 99.3369L12.6252 96.1139H13.1596L14.0447 98.6689H14.0781L14.9631 96.1139H15.4975L14.1365 99.7878C14.0753 99.9534 13.9994 100.09 13.909 100.199C13.8185 100.309 13.7134 100.39 13.5938 100.443C13.4755 100.496 13.3419 100.523 13.193 100.523ZM17.3355 99.387C17.046 99.387 16.7921 99.3181 16.5736 99.1803C16.3565 99.0426 16.1867 98.8498 16.0643 98.6021C15.9432 98.3544 15.8826 98.065 15.8826 97.7337C15.8826 97.3998 15.9432 97.1082 16.0643 96.8591C16.1867 96.61 16.3565 96.4166 16.5736 96.2788C16.7921 96.141 17.046 96.0721 17.3355 96.0721C17.625 96.0721 17.8782 96.141 18.0953 96.2788C18.3138 96.4166 18.4836 96.61 18.6047 96.8591C18.7271 97.1082 18.7884 97.3998 18.7884 97.7337C18.7884 98.065 18.7271 98.3544 18.6047 98.6021C18.4836 98.8498 18.3138 99.0426 18.0953 99.1803C17.8782 99.3181 17.625 99.387 17.3355 99.387ZM17.3355 98.9445C17.5554 98.9445 17.7363 98.8881 17.8782 98.7754C18.0202 98.6627 18.1252 98.5144 18.1934 98.3308C18.2616 98.1471 18.2957 97.9481 18.2957 97.7337C18.2957 97.5194 18.2616 97.3197 18.1934 97.1347C18.1252 96.9496 18.0202 96.8 17.8782 96.6859C17.7363 96.5717 17.5554 96.5147 17.3355 96.5147C17.1156 96.5147 16.9347 96.5717 16.7928 96.6859C16.6508 96.8 16.5458 96.9496 16.4776 97.1347C16.4094 97.3197 16.3753 97.5194 16.3753 97.7337C16.3753 97.9481 16.4094 98.1471 16.4776 98.3308C16.5458 98.5144 16.6508 98.6627 16.7928 98.7754C16.9347 98.8881 17.1156 98.9445 17.3355 98.9445ZM21.561 98.0093V96.1139H22.0536V99.3202H21.561V98.7775H21.5276C21.4524 98.9403 21.3356 99.0788 21.1769 99.1929C21.0183 99.3056 20.8179 99.3619 20.5757 99.3619C20.3753 99.3619 20.1972 99.3181 20.0413 99.2304C19.8855 99.1414 19.763 99.0078 19.674 98.8297C19.5849 98.6501 19.5404 98.424 19.5404 98.1512V96.1139H20.033V98.1178C20.033 98.3516 20.0984 98.5381 20.2292 98.6773C20.3614 98.8164 20.5298 98.886 20.7344 98.886C20.8568 98.886 20.9814 98.8547 21.108 98.7921C21.236 98.7295 21.3432 98.6334 21.4295 98.504C21.5172 98.3746 21.561 98.2097 21.561 98.0093ZM22.9559 99.3202V96.1139H23.4319V96.5982H23.4653C23.5237 96.4395 23.6295 96.3108 23.7825 96.212C23.9356 96.1132 24.1082 96.0638 24.3002 96.0638C24.3364 96.0638 24.3816 96.0645 24.4359 96.0659C24.4902 96.0673 24.5312 96.0694 24.5591 96.0721V96.5731C24.5424 96.569 24.5041 96.5627 24.4443 96.5543C24.3858 96.5446 24.3239 96.5397 24.2585 96.5397C24.1026 96.5397 23.9635 96.5724 23.841 96.6378C23.7199 96.7019 23.6239 96.7909 23.5529 96.905C23.4833 97.0178 23.4486 97.1465 23.4486 97.2912V99.3202H22.9559ZM28.0988 99.387C27.7983 99.387 27.5394 99.316 27.3223 99.1741C27.1052 99.0321 26.9382 98.8366 26.8213 98.5875C26.7044 98.3384 26.646 98.0538 26.646 97.7337C26.646 97.4081 26.7058 97.1207 26.8255 96.8716C26.9466 96.6211 27.115 96.4256 27.3307 96.2851C27.5478 96.1431 27.801 96.0721 28.0905 96.0721C28.3159 96.0721 28.5191 96.1139 28.7 96.1974C28.8809 96.2809 29.0291 96.3978 29.1447 96.5481C29.2602 96.6984 29.3318 96.8737 29.3597 97.0741H28.867C28.8294 96.928 28.746 96.7986 28.6165 96.6859C28.4885 96.5717 28.3159 96.5147 28.0988 96.5147C27.9068 96.5147 27.7384 96.5648 27.5937 96.665C27.4503 96.7638 27.3383 96.9036 27.2576 97.0846C27.1783 97.2641 27.1386 97.4749 27.1386 97.717C27.1386 97.9648 27.1776 98.1805 27.2555 98.3642C27.3348 98.5478 27.4462 98.6905 27.5895 98.7921C27.7342 98.8937 27.904 98.9445 28.0988 98.9445C28.2269 98.9445 28.3431 98.9222 28.4474 98.8777C28.5518 98.8331 28.6402 98.7691 28.7126 98.6856C28.7849 98.6021 28.8364 98.5019 28.867 98.385H29.3597C29.3318 98.5743 29.2629 98.7448 29.153 98.8964C29.0445 99.0467 28.9004 99.1664 28.7209 99.2555C28.5428 99.3432 28.3354 99.387 28.0988 99.387ZM31.3824 99.387C31.0929 99.387 30.839 99.3181 30.6205 99.1803C30.4034 99.0426 30.2336 98.8498 30.1111 98.6021C29.9901 98.3544 29.9295 98.065 29.9295 97.7337C29.9295 97.3998 29.9901 97.1082 30.1111 96.8591C30.2336 96.61 30.4034 96.4166 30.6205 96.2788C30.839 96.141 31.0929 96.0721 31.3824 96.0721C31.6718 96.0721 31.9251 96.141 32.1422 96.2788C32.3607 96.4166 32.5305 96.61 32.6515 96.8591C32.774 97.1082 32.8352 97.3998 32.8352 97.7337C32.8352 98.065 32.774 98.3544 32.6515 98.6021C32.5305 98.8498 32.3607 99.0426 32.1422 99.1803C31.9251 99.3181 31.6718 99.387 31.3824 99.387ZM31.3824 98.9445C31.6023 98.9445 31.7832 98.8881 31.9251 98.7754C32.0671 98.6627 32.1721 98.5144 32.2403 98.3308C32.3085 98.1471 32.3426 97.9481 32.3426 97.7337C32.3426 97.5194 32.3085 97.3197 32.2403 97.1347C32.1721 96.9496 32.0671 96.8 31.9251 96.6859C31.7832 96.5717 31.6023 96.5147 31.3824 96.5147C31.1625 96.5147 30.9816 96.5717 30.8397 96.6859C30.6977 96.8 30.5926 96.9496 30.5244 97.1347C30.4563 97.3197 30.4222 97.5194 30.4222 97.7337C30.4222 97.9481 30.4563 98.1471 30.5244 98.3308C30.5926 98.5144 30.6977 98.6627 30.8397 98.7754C30.9816 98.8881 31.1625 98.9445 31.3824 98.9445ZM33.5872 99.3202V96.1139H34.0632V96.6149H34.1049C34.1717 96.4437 34.2796 96.3108 34.4285 96.2162C34.5774 96.1202 34.7562 96.0721 34.9649 96.0721C35.1765 96.0721 35.3525 96.1202 35.4931 96.2162C35.635 96.3108 35.7456 96.4437 35.825 96.6149H35.8584C35.9405 96.4493 36.0636 96.3178 36.2278 96.2204C36.3921 96.1215 36.589 96.0721 36.8186 96.0721C37.1053 96.0721 37.3398 96.1619 37.5221 96.3414C37.7044 96.5196 37.7955 96.7972 37.7955 97.1743V99.3202H37.3029V97.1743C37.3029 96.9377 37.2382 96.7687 37.1087 96.6671C36.9793 96.5655 36.8269 96.5147 36.6516 96.5147C36.4262 96.5147 36.2515 96.5829 36.1276 96.7193C36.0038 96.8542 35.9419 97.0254 35.9419 97.2328V99.3202H35.4409V97.1242C35.4409 96.9419 35.3817 96.7951 35.2635 96.6838C35.1452 96.571 34.9928 96.5147 34.8063 96.5147C34.6783 96.5147 34.5586 96.5488 34.4473 96.617C34.3373 96.6852 34.2483 96.7798 34.1801 96.9009C34.1133 97.0205 34.0799 97.159 34.0799 97.3163V99.3202H33.5872ZM38.6962 100.523V96.1139H39.1722V96.6232H39.2306C39.2668 96.5676 39.3169 96.4966 39.3809 96.4103C39.4463 96.3226 39.5396 96.2447 39.6606 96.1765C39.7831 96.1069 39.9487 96.0721 40.1574 96.0721C40.4274 96.0721 40.6654 96.1396 40.8713 96.2746C41.0773 96.4096 41.238 96.601 41.3535 96.8487C41.4691 97.0964 41.5268 97.3886 41.5268 97.7254C41.5268 98.065 41.4691 98.3593 41.3535 98.6084C41.238 98.8561 41.078 99.0481 40.8734 99.1845C40.6689 99.3195 40.433 99.387 40.1658 99.387C39.9598 99.387 39.7949 99.3529 39.6711 99.2847C39.5472 99.2151 39.4519 99.1365 39.3851 99.0488C39.3183 98.9598 39.2668 98.886 39.2306 98.8276H39.1889V100.523H38.6962ZM39.1805 97.717C39.1805 97.9592 39.216 98.1728 39.287 98.3579C39.358 98.5416 39.4616 98.6856 39.598 98.79C39.7344 98.893 39.9014 98.9445 40.099 98.9445C40.305 98.9445 40.4768 98.8902 40.6146 98.7816C40.7538 98.6717 40.8581 98.5242 40.9277 98.3391C40.9987 98.1526 41.0342 97.9453 41.0342 97.717C41.0342 97.4916 40.9994 97.2884 40.9298 97.1075C40.8616 96.9252 40.7579 96.7812 40.6188 96.6754C40.481 96.5683 40.3077 96.5147 40.099 96.5147C39.8986 96.5147 39.7302 96.5655 39.5938 96.6671C39.4575 96.7673 39.3545 96.9078 39.2849 97.0887C39.2153 97.2682 39.1805 97.4777 39.1805 97.717ZM43.2218 99.3953C43.0186 99.3953 42.8342 99.3571 42.6686 99.2805C42.503 99.2026 42.3715 99.0906 42.2741 98.9445C42.1767 98.7969 42.128 98.6188 42.128 98.4101C42.128 98.2264 42.1642 98.0775 42.2365 97.9634C42.3089 97.8479 42.4056 97.7574 42.5267 97.692C42.6478 97.6266 42.7814 97.5779 42.9275 97.5459C43.075 97.5125 43.2232 97.486 43.3721 97.4666C43.5669 97.4415 43.7249 97.4227 43.8459 97.4102C43.9684 97.3963 44.0575 97.3733 44.1131 97.3413C44.1702 97.3093 44.1987 97.2536 44.1987 97.1743V97.1576C44.1987 96.9517 44.1424 96.7916 44.0296 96.6775C43.9183 96.5634 43.7492 96.5063 43.5224 96.5063C43.2872 96.5063 43.1028 96.5578 42.9692 96.6608C42.8356 96.7638 42.7417 96.8737 42.6874 96.9906L42.2198 96.8236C42.3033 96.6288 42.4147 96.4771 42.5538 96.3686C42.6944 96.2586 42.8475 96.1821 43.0131 96.1389C43.1801 96.0944 43.3443 96.0721 43.5057 96.0721C43.6087 96.0721 43.727 96.0847 43.8606 96.1097C43.9955 96.1334 44.1257 96.1828 44.2509 96.2579C44.3775 96.3331 44.4826 96.4465 44.5661 96.5982C44.6496 96.7499 44.6914 96.953 44.6914 97.2077V99.3202H44.1987V98.886H44.1737C44.1403 98.9556 44.0846 99.03 44.0067 99.1094C43.9287 99.1887 43.8251 99.2562 43.6957 99.3118C43.5662 99.3675 43.4083 99.3953 43.2218 99.3953ZM43.297 98.9528C43.4918 98.9528 43.656 98.9145 43.7896 98.838C43.9246 98.7615 44.0262 98.6627 44.0944 98.5416C44.1639 98.4205 44.1987 98.2932 44.1987 98.1596V97.7087C44.1779 97.7337 44.1319 97.7567 44.061 97.7776C43.9914 97.7971 43.9107 97.8145 43.8188 97.8298C43.7284 97.8437 43.64 97.8562 43.5537 97.8673C43.4688 97.8771 43.3999 97.8854 43.3471 97.8924C43.219 97.9091 43.0993 97.9362 42.988 97.9738C42.8781 98.01 42.789 98.065 42.7208 98.1387C42.654 98.2111 42.6206 98.3099 42.6206 98.4351C42.6206 98.6063 42.6839 98.7357 42.8106 98.8234C42.9386 98.9097 43.1007 98.9528 43.297 98.9528ZM46.0832 97.3914V99.3202H45.5905V96.1139H46.0665V96.6149H46.1082C46.1834 96.4521 46.2975 96.3212 46.4505 96.2224C46.6036 96.1222 46.8012 96.0721 47.0434 96.0721C47.2605 96.0721 47.4504 96.1167 47.6132 96.2057C47.7761 96.2934 47.9027 96.427 47.9932 96.6065C48.0836 96.7847 48.1288 97.0101 48.1288 97.2829V99.3202H47.6362V97.3163C47.6362 97.0644 47.5708 96.8682 47.44 96.7276C47.3092 96.5857 47.1297 96.5147 46.9014 96.5147C46.7442 96.5147 46.6036 96.5488 46.4798 96.617C46.3573 96.6852 46.2606 96.7847 46.1896 96.9155C46.1186 97.0463 46.0832 97.2049 46.0832 97.3914ZM49.2315 100.523C49.148 100.523 49.0736 100.516 49.0082 100.502C48.9428 100.489 48.8975 100.477 48.8725 100.464L48.9977 100.03C49.1174 100.061 49.2232 100.072 49.315 100.063C49.4069 100.055 49.4883 100.014 49.5593 99.9402C49.6316 99.8678 49.6977 99.7502 49.7576 99.5874L49.8494 99.3369L48.6637 96.1139H49.1981L50.0832 98.6689H50.1166L51.0017 96.1139H51.5361L50.1751 99.7878C50.1138 99.9534 50.038 100.09 49.9475 100.199C49.8571 100.309 49.752 100.39 49.6323 100.443C49.514 100.496 49.3804 100.523 49.2315 100.523ZM55.234 96.1139V96.5314H53.5724V96.1139H55.234ZM54.0566 95.3457H54.5493V98.4017C54.5493 98.5409 54.5695 98.6453 54.6098 98.7148C54.6516 98.783 54.7044 98.829 54.7685 98.8526C54.8339 98.8749 54.9028 98.886 54.9751 98.886C55.0294 98.886 55.0739 98.8832 55.1087 98.8777C55.1435 98.8707 55.1713 98.8651 55.1922 98.861L55.2924 99.3035C55.259 99.316 55.2124 99.3285 55.1525 99.3411C55.0927 99.355 55.0169 99.3619 54.925 99.3619C54.7859 99.3619 54.6495 99.332 54.5159 99.2722C54.3837 99.2123 54.2737 99.1212 54.1861 98.9987C54.0998 98.8763 54.0566 98.7218 54.0566 98.5353V95.3457ZM56.9185 99.3953C56.7153 99.3953 56.531 99.3571 56.3653 99.2805C56.1997 99.2026 56.0682 99.0906 55.9708 98.9445C55.8734 98.7969 55.8247 98.6188 55.8247 98.4101C55.8247 98.2264 55.8609 98.0775 55.9333 97.9634C56.0056 97.8479 56.1023 97.7574 56.2234 97.692C56.3445 97.6266 56.4781 97.5779 56.6242 97.5459C56.7717 97.5125 56.9199 97.486 57.0688 97.4666C57.2636 97.4415 57.4216 97.4227 57.5427 97.4102C57.6651 97.3963 57.7542 97.3733 57.8099 97.3413C57.8669 97.3093 57.8954 97.2536 57.8954 97.1743V97.1576C57.8954 96.9517 57.8391 96.7916 57.7264 96.6775C57.615 96.5634 57.4459 96.5063 57.2191 96.5063C56.9839 96.5063 56.7995 96.5578 56.6659 96.6608C56.5323 96.7638 56.4384 96.8737 56.3841 96.9906L55.9166 96.8236C56 96.6288 56.1114 96.4771 56.2505 96.3686C56.3911 96.2586 56.5442 96.1821 56.7098 96.1389C56.8768 96.0944 57.041 96.0721 57.2024 96.0721C57.3054 96.0721 57.4237 96.0847 57.5573 96.1097C57.6923 96.1334 57.8224 96.1828 57.9476 96.2579C58.0743 96.3331 58.1793 96.4465 58.2628 96.5982C58.3463 96.7499 58.3881 96.953 58.3881 97.2077V99.3202H57.8954V98.886H57.8704C57.837 98.9556 57.7813 99.03 57.7034 99.1094C57.6255 99.1887 57.5218 99.2562 57.3924 99.3118C57.2629 99.3675 57.105 99.3953 56.9185 99.3953ZM56.9937 98.9528C57.1885 98.9528 57.3527 98.9145 57.4863 98.838C57.6213 98.7615 57.7229 98.6627 57.7911 98.5416C57.8607 98.4205 57.8954 98.2932 57.8954 98.1596V97.7087C57.8746 97.7337 57.8286 97.7567 57.7577 97.7776C57.6881 97.7971 57.6074 97.8145 57.5155 97.8298C57.4251 97.8437 57.3367 97.8562 57.2504 97.8673C57.1655 97.8771 57.0966 97.8854 57.0438 97.8924C56.9157 97.9091 56.7961 97.9362 56.6847 97.9738C56.5748 98.01 56.4857 98.065 56.4175 98.1387C56.3507 98.2111 56.3173 98.3099 56.3173 98.4351C56.3173 98.6063 56.3807 98.7357 56.5073 98.8234C56.6353 98.9097 56.7974 98.9528 56.9937 98.9528ZM60.5815 100.589C60.3435 100.589 60.1389 100.559 59.9677 100.498C59.7966 100.438 59.6539 100.358 59.5398 100.26C59.4271 100.162 59.3373 100.058 59.2705 99.9464L59.663 99.6709C59.7075 99.7293 59.7639 99.7961 59.8321 99.8713C59.9003 99.9478 59.9935 100.014 60.1118 100.07C60.2315 100.127 60.388 100.155 60.5815 100.155C60.8403 100.155 61.0539 100.093 61.2223 99.9673C61.3907 99.8421 61.4749 99.6458 61.4749 99.3786V98.7274H61.4331C61.3969 98.7858 61.3455 98.8582 61.2787 98.9445C61.2132 99.0293 61.1186 99.1052 60.9948 99.172C60.8723 99.2374 60.7067 99.2701 60.498 99.2701C60.2391 99.2701 60.0067 99.2089 59.8007 99.0864C59.5962 98.9639 59.4341 98.7858 59.3144 98.552C59.1961 98.3182 59.1369 98.0343 59.1369 97.7003C59.1369 97.3719 59.1947 97.0859 59.3102 96.8424C59.4257 96.5975 59.5864 96.4082 59.7924 96.2746C59.9984 96.1396 60.2363 96.0721 60.5063 96.0721C60.715 96.0721 60.8806 96.1069 61.0031 96.1765C61.127 96.2447 61.2216 96.3226 61.287 96.4103C61.3538 96.4966 61.4053 96.5676 61.4415 96.6232H61.4916V96.1139H61.9675V99.412C61.9675 99.6876 61.9049 99.9116 61.7796 100.084C61.6558 100.258 61.4888 100.385 61.2787 100.466C61.0699 100.548 60.8375 100.589 60.5815 100.589ZM60.5648 98.8276C60.7624 98.8276 60.9294 98.7823 61.0657 98.6919C61.2021 98.6014 61.3058 98.4713 61.3768 98.3015C61.4477 98.1318 61.4832 97.9286 61.4832 97.692C61.4832 97.461 61.4484 97.2571 61.3789 97.0804C61.3093 96.9036 61.2063 96.7652 61.0699 96.665C60.9335 96.5648 60.7651 96.5147 60.5648 96.5147C60.356 96.5147 60.1821 96.5676 60.0429 96.6733C59.9051 96.7791 59.8014 96.921 59.7319 97.0992C59.6637 97.2773 59.6296 97.4749 59.6296 97.692C59.6296 97.9147 59.6644 98.1116 59.734 98.2827C59.8049 98.4525 59.9093 98.5861 60.0471 98.6835C60.1862 98.7796 60.3588 98.8276 60.5648 98.8276ZM65.0152 95.0451V99.3202H64.5225V95.0451H65.0152ZM65.9175 99.3202V96.1139H66.4101V99.3202H65.9175ZM66.168 95.5795C66.0719 95.5795 65.9891 95.5468 65.9195 95.4814C65.8514 95.416 65.8173 95.3374 65.8173 95.2455C65.8173 95.1537 65.8514 95.075 65.9195 95.0096C65.9891 94.9442 66.0719 94.9115 66.168 94.9115C66.264 94.9115 66.3461 94.9442 66.4143 95.0096C66.4838 95.075 66.5186 95.1537 66.5186 95.2455C66.5186 95.3374 66.4838 95.416 66.4143 95.4814C66.3461 95.5468 66.264 95.5795 66.168 95.5795ZM67.805 97.3914V99.3202H67.3124V96.1139H67.7883V96.6149H67.8301C67.9052 96.4521 68.0193 96.3212 68.1724 96.2224C68.3255 96.1222 68.5231 96.0721 68.7652 96.0721C68.9823 96.0721 69.1723 96.1167 69.3351 96.2057C69.4979 96.2934 69.6246 96.427 69.715 96.6065C69.8055 96.7847 69.8507 97.0101 69.8507 97.2829V99.3202H69.3581V97.3163C69.3581 97.0644 69.2927 96.8682 69.1619 96.7276C69.031 96.5857 68.8515 96.5147 68.6233 96.5147C68.466 96.5147 68.3255 96.5488 68.2016 96.617C68.0792 96.6852 67.9825 96.7847 67.9115 96.9155C67.8405 97.0463 67.805 97.2049 67.805 97.3914ZM72.0952 99.387C71.7863 99.387 71.5198 99.3188 71.2957 99.1824C71.0731 99.0447 70.9012 98.8526 70.7801 98.6063C70.6605 98.3586 70.6006 98.0705 70.6006 97.7421C70.6006 97.4137 70.6605 97.1242 70.7801 96.8737C70.9012 96.6218 71.0696 96.4256 71.2853 96.2851C71.5024 96.1431 71.7557 96.0721 72.0451 96.0721C72.2121 96.0721 72.377 96.1 72.5399 96.1556C72.7027 96.2113 72.8509 96.3018 72.9845 96.427C73.1181 96.5509 73.2245 96.7151 73.3039 96.9196C73.3832 97.1242 73.4228 97.3761 73.4228 97.6753V97.884H70.9513V97.4582H72.9219C72.9219 97.2773 72.8857 97.1159 72.8133 96.9739C72.7423 96.832 72.6407 96.7199 72.5085 96.6378C72.3777 96.5557 72.2233 96.5147 72.0451 96.5147C71.8489 96.5147 71.6791 96.5634 71.5358 96.6608C71.3939 96.7568 71.2846 96.8821 71.2081 97.0365C71.1315 97.191 71.0933 97.3566 71.0933 97.5334V97.8172C71.0933 98.0594 71.135 98.2647 71.2185 98.433C71.3034 98.6 71.421 98.7274 71.5713 98.815C71.7216 98.9013 71.8962 98.9445 72.0952 98.9445C72.2247 98.9445 72.3415 98.9264 72.4459 98.8902C72.5517 98.8526 72.6428 98.7969 72.7194 98.7232C72.7959 98.648 72.8551 98.5548 72.8968 98.4435L73.3727 98.5771C73.3226 98.7385 73.2384 98.8804 73.1202 99.0029C73.0019 99.124 72.8558 99.2186 72.6818 99.2868C72.5078 99.3536 72.3123 99.387 72.0952 99.387Z" fill="#404041"/>
<path d="M57.9866 3.94473C56.7026 5.0032 55.4669 6.08268 54.268 7.17553C48.5719 3.69092 50.533 4.89026 45.5393 1.83615C37.9758 6.53443 28.3525 12.5118 20.3886 17.4591C20.3364 32.4412 23.538 48.0907 31.9871 60.0416C32.9079 42.1193 41.8413 24.4684 52.3022 10.7657C54.7301 7.5874 56.9569 5.02182 57.9866 3.94473ZM28.2365 44.0583C25.7664 36.9036 24.3941 28.7441 24.2095 19.895L45.5532 6.63686L51.1993 10.0909C40.0051 21.1968 32.8066 33.556 28.2365 44.0583Z" fill="url(#paint0_linear_60_299)"/>
<path d="M56.1984 13.1488C59.4391 6.9401 62.8792 2.0095 64.6007 1.52588e-05C48.0927 16.0184 38.2755 39.9443 35.0354 63.9197C37.57 66.8119 40.5229 69.404 43.8182 71.4572C42.7522 50.1928 47.379 30.0497 56.1984 13.1488Z" fill="url(#paint1_linear_60_299)"/>
<path d="M60.6667 11.0901C61.695 8.13991 62.4382 6.4561 62.4382 6.4561C50.6806 24.7784 46.8577 48.7917 48.5174 71.1945C64.8981 60.6798 71.5564 38.7347 71.5369 17.7394C66.8553 14.8754 68.0138 15.5833 60.6667 11.0901ZM55.6886 59.1507C52.698 41.7735 56.3781 24.8829 59.3643 15.0855L67.7078 20.1892C67.3308 35.9994 63.1517 49.5911 55.6886 59.1507Z" fill="url(#paint2_linear_60_299)"/>
<path d="M31.7761 59.279C22.5571 45.8412 20.6195 29.2832 20.642 17.6229L45.54 2.15706L54.296 7.51314C54.5501 7.28154 54.8452 7.01173 55.2612 6.64092C43.4989 20.6971 32.9978 40.0847 31.7761 59.279ZM23.952 19.7332C24.1431 28.6694 25.3719 36.5492 28.2093 44.7679C34.3228 30.7151 41.9221 19.6737 51.6346 10.0365L45.5522 6.31571L23.952 19.7332Z" fill="url(#paint3_linear_60_299)"/>
<path d="M43.54 70.9582C40.5668 69.0497 37.7989 66.6519 35.3054 63.824C38.3523 41.4577 47.1699 18.9992 61.9081 3.1346C49.8694 20.523 42.3379 44.756 43.54 70.9582Z" fill="url(#paint4_linear_60_299)"/>
<path d="M48.7384 70.7258C47.0784 47.3001 51.4509 25.589 61.0922 9.14992C60.8133 9.89989 60.5949 10.5145 60.3506 11.2172L71.2832 17.9047C71.2693 38.5841 64.6874 60.2274 48.7384 70.7258ZM55.5374 59.7742C64.1417 48.7571 67.6211 34.8038 67.9661 20.0266L59.2207 14.6772C54.7031 29.4907 52.9383 44.6703 55.5374 59.7742Z" fill="url(#paint5_linear_60_299)"/>
<path d="M25.5455 34.9853C24.5593 30.0805 24.067 25.0974 23.9523 19.7332L45.5526 6.31572L51.6351 10.0365C44.299 17.3159 38.1689 25.3973 32.9736 34.9719C34.5882 34.9698 36.2029 34.9681 37.8175 34.9672C42.2197 24.4704 48.5324 14.6825 55.2617 6.64117C54.8457 7.01221 54.5506 7.28179 54.2965 7.51339L45.5405 2.1573L20.6425 17.6232C20.6328 22.7047 20.9957 28.7166 22.171 34.9949C23.2955 34.9913 24.4206 34.9882 25.5455 34.9853Z" fill="url(#paint6_linear_60_299)"/>
<path d="M47.4222 34.9655C50.7211 22.7885 55.978 11.6997 61.908 3.13481C53.6202 12.056 47.2051 23.0626 42.6348 34.9648C44.2306 34.9648 45.8262 34.965 47.4222 34.9655Z" fill="url(#paint7_linear_60_299)"/>
<path d="M51.1802 34.9671C52.4302 34.9676 53.681 34.9683 54.931 34.9691C55.6988 28.1574 57.1767 21.3799 59.2207 14.6772L67.966 20.0266C67.849 25.0396 67.3517 30.0795 66.388 34.9781C67.504 34.9791 68.6202 34.9798 69.7358 34.9805C70.7517 29.6099 71.2793 23.887 71.2832 17.9046L60.3506 11.2172C60.5949 10.5145 60.8132 9.89964 61.0922 9.1499C56.6372 16.7464 53.3097 25.4701 51.1802 34.9671Z" fill="url(#paint8_linear_60_299)"/>
<g opacity="0.4">
<path opacity="0.0244" d="M69.7758 73.5138C69.7758 71.6096 22.1489 71.6063 22.1489 73.5138C22.1489 74.4655 34.0537 74.9428 45.9657 74.9428C57.8757 74.9433 69.7758 74.4665 69.7758 73.5138Z" fill="#B7B9BB"/>
<path opacity="0.0488" d="M69.2669 73.5002C69.2669 71.6368 22.6584 71.6332 22.6584 73.5002C22.6584 74.4309 34.3039 74.8989 45.9658 74.8989C57.6256 74.8989 69.2669 74.4318 69.2669 73.5002Z" fill="#B4B5B7"/>
<path opacity="0.0732" d="M68.7578 73.4865C68.7578 71.664 23.1677 71.6604 23.1677 73.4865C23.1677 74.3964 34.5544 74.8544 45.9661 74.8544C57.3753 74.8546 68.7578 74.3974 68.7578 73.4865Z" fill="#B0B1B3"/>
<path opacity="0.0976" d="M68.2481 73.4726C68.2481 71.6907 23.6765 71.6871 23.6765 73.4726C23.6765 74.3618 34.8039 74.8102 45.9655 74.8102C57.1249 74.8105 68.2481 74.3628 68.2481 73.4726Z" fill="#ACAEAF"/>
<path opacity="0.122" d="M67.7393 73.459C67.7393 71.7177 24.186 71.7144 24.186 73.459C24.186 74.3275 35.0544 74.7663 45.9658 74.7663C56.8746 74.7663 67.7393 74.3279 67.7393 73.459Z" fill="#A8AAAC"/>
<path opacity="0.1463" d="M67.2301 73.4452C67.2301 71.7447 24.6951 71.7416 24.6951 73.4452C24.6951 74.2926 35.3044 74.7219 45.9654 74.7219C56.6247 74.7221 67.2301 74.2935 67.2301 73.4452Z" fill="#A5A6A8"/>
<path opacity="0.1707" d="M66.7207 73.4313C66.7207 71.7716 25.2041 71.7685 25.2041 73.4313C25.2041 74.2582 35.5546 74.6777 45.9654 74.6777C56.3739 74.6777 66.7207 74.2584 66.7207 73.4313Z" fill="#A1A2A4"/>
<path opacity="0.1951" d="M66.2113 73.4175C66.2113 71.7986 25.7134 71.7953 25.7134 73.4175C25.7134 74.2231 35.8046 74.6333 45.9653 74.6333C56.1236 74.6335 66.2113 74.2241 66.2113 73.4175Z" fill="#9D9EA0"/>
<path opacity="0.2195" d="M65.7024 73.4036C65.7024 71.8254 26.2227 71.8225 26.2227 73.4036C26.2227 74.1885 36.055 74.5889 45.9653 74.5889C55.8735 74.5891 65.7024 74.1892 65.7024 73.4036Z" fill="#9A9A9C"/>
<path opacity="0.2439" d="M65.1932 73.3902C65.1932 71.8526 26.7319 71.8497 26.7319 73.3902C26.7319 74.1541 36.3053 74.5449 45.9652 74.5449C55.6234 74.5449 65.1932 74.1548 65.1932 73.3902Z" fill="#969698"/>
<path opacity="0.2683" d="M64.6841 73.3762C64.6841 71.8791 27.2412 71.8767 27.2412 73.3762C27.2412 74.119 36.5555 74.5005 45.965 74.5005C55.373 74.5005 64.6841 74.12 64.6841 73.3762Z" fill="#929394"/>
<path opacity="0.2927" d="M64.1749 73.3623C64.1749 71.9058 27.7505 71.9035 27.7505 73.3623C27.7505 74.0844 36.8057 74.4562 45.9653 74.4562C55.1227 74.4564 64.1749 74.0851 64.1749 73.3623Z" fill="#8F8F90"/>
<path opacity="0.3171" d="M63.6658 73.3487C63.6658 71.9331 28.2595 71.9307 28.2595 73.3487C28.2595 74.05 37.0557 74.412 45.9651 74.412C54.8723 74.4122 63.6658 74.0505 63.6658 73.3487Z" fill="#8B8B8D"/>
<path opacity="0.3415" d="M63.1564 73.3349C63.1564 71.96 28.7686 71.9574 28.7686 73.3349C28.7686 74.0151 37.3059 74.3675 45.9647 74.3675C54.622 74.3678 63.1564 74.0158 63.1564 73.3349Z" fill="#878789"/>
<path opacity="0.3659" d="M62.6473 73.3213C62.6473 71.987 29.2783 71.9846 29.2783 73.3213C29.2783 73.9808 37.5564 74.3234 45.9653 74.3234C54.372 74.3236 62.6473 73.981 62.6473 73.3213Z" fill="#838385"/>
<path opacity="0.3902" d="M62.1378 73.3074C62.1378 72.0137 29.7871 72.0114 29.7871 73.3074C29.7871 73.9456 37.8064 74.279 45.9646 74.279C54.1214 74.2792 62.1378 73.9463 62.1378 73.3074Z" fill="#807F81"/>
<path opacity="0.4146" d="M61.6287 73.2936C61.6287 72.0407 30.2964 72.0386 30.2964 73.2936C30.2964 73.911 38.0564 74.2348 45.9645 74.2348C53.871 74.235 61.6287 73.9117 61.6287 73.2936Z" fill="#7C7B7D"/>
<path opacity="0.439" d="M61.1195 73.28C61.1195 72.068 30.8054 72.0658 30.8054 73.28C30.8054 73.8766 38.3066 74.1906 45.9645 74.1906C53.6209 74.1909 61.1195 73.8771 61.1195 73.28Z" fill="#787879"/>
<path opacity="0.4634" d="M60.6104 73.2661C60.6104 72.0947 31.3147 72.0926 31.3147 73.2661C31.3147 73.8418 38.5567 74.1462 45.9644 74.1462C53.3704 74.1465 60.6104 73.8423 60.6104 73.2661Z" fill="#757475"/>
<path opacity="0.4878" d="M60.1015 73.2522C60.1015 72.1217 31.8242 72.1198 31.8242 73.2522C31.8242 73.8071 38.8073 74.1023 45.9647 74.1023C53.1205 74.102 60.1015 73.8076 60.1015 73.2522Z" fill="#717071"/>
<path opacity="0.5122" d="M59.5921 73.2384C59.5921 72.1487 32.3333 72.1468 32.3333 73.2384C32.3333 73.7726 39.0573 74.0579 45.9645 74.0579C52.8704 74.0581 59.5921 73.773 59.5921 73.2384Z" fill="#6D6C6E"/>
<path opacity="0.5366" d="M59.0829 73.2245C59.0829 72.1752 32.8425 72.1735 32.8425 73.2245C32.8425 73.7377 39.3076 74.0134 45.9646 74.0134C52.6198 74.0137 59.0829 73.7384 59.0829 73.2245Z" fill="#69686A"/>
<path opacity="0.561" d="M58.5733 73.2112C58.5733 72.2024 33.3513 72.2007 33.3513 73.2112C33.3513 73.7033 39.5573 73.9693 45.9639 73.9693C52.3692 73.9693 58.5733 73.7035 58.5733 73.2112Z" fill="#666466"/>
<path opacity="0.5854" d="M58.0644 73.1971C58.0644 72.2291 33.8608 72.2275 33.8608 73.1971C33.8608 73.6684 39.8076 73.9251 45.9642 73.9251C52.1192 73.9251 58.0644 73.6689 58.0644 73.1971Z" fill="#626162"/>
<path opacity="0.6098" d="M57.5552 73.1832C57.5552 72.2559 34.3699 72.2544 34.3699 73.1832C34.3699 73.6338 40.0578 73.8807 45.9638 73.8807C51.8688 73.8807 57.5552 73.634 57.5552 73.1832Z" fill="#5E5D5E"/>
<path opacity="0.6341" d="M57.0458 73.1696C57.0458 72.2831 34.8789 72.2817 34.8789 73.1696C34.8789 73.5992 40.3078 73.8365 45.9639 73.8365C51.6185 73.8365 57.0458 73.5997 57.0458 73.1696Z" fill="#5B595A"/>
<path opacity="0.6585" d="M56.5367 73.1558C56.5367 72.3101 35.3882 72.3087 35.3882 73.1558C35.3882 73.5643 40.558 73.7921 45.9637 73.7921C51.3681 73.7921 56.5367 73.5648 56.5367 73.1558Z" fill="#575556"/>
<path opacity="0.6829" d="M56.0275 73.1422C56.0275 72.3371 35.8977 72.3359 35.8977 73.1422C35.8977 73.53 40.8085 73.748 45.964 73.748C51.1181 73.748 56.0275 73.5302 56.0275 73.1422Z" fill="#535152"/>
<path opacity="0.7073" d="M55.5184 73.1283C55.5184 72.3638 36.4067 72.3628 36.4067 73.1283C36.4067 73.4951 41.0585 73.7035 45.9636 73.7035C50.8677 73.7035 55.5184 73.4953 55.5184 73.1283Z" fill="#4F4D4F"/>
<path opacity="0.7317" d="M55.0095 73.1145C55.0095 72.3908 36.9163 72.3898 36.9163 73.1145C36.9163 73.4602 41.309 73.6591 45.9642 73.6591C50.6176 73.6596 55.0095 73.4607 55.0095 73.1145Z" fill="#4C494B"/>
<path opacity="0.7561" d="M54.4998 73.1009C54.4998 72.418 37.425 72.417 37.425 73.1009C37.425 73.4258 41.5589 73.6149 45.9635 73.6149C50.367 73.6152 54.4998 73.4261 54.4998 73.1009Z" fill="#484647"/>
<path opacity="0.7805" d="M53.9912 73.087C53.9912 72.4447 37.9348 72.444 37.9348 73.087C37.9348 73.391 41.8096 73.5708 45.9641 73.5708C50.117 73.5708 53.9912 73.3915 53.9912 73.087Z" fill="#444243"/>
<path opacity="0.8049" d="M53.4815 73.0734C53.4815 72.4715 38.4436 72.471 38.4436 73.0734C38.4436 73.3566 42.0594 73.5266 45.9634 73.5266C49.8666 73.5266 53.4815 73.3566 53.4815 73.0734Z" fill="#413E3F"/>
<path opacity="0.8293" d="M52.9724 73.0593C52.9724 72.4984 38.9529 72.4977 38.9529 73.0593C38.9529 73.322 42.3096 73.4822 45.9635 73.4822C49.6163 73.4822 52.9724 73.3217 52.9724 73.0593Z" fill="#3D3A3B"/>
<path opacity="0.8537" d="M52.463 73.0455C52.463 72.5252 39.4619 72.5247 39.4619 73.0455C39.4619 73.2871 42.5598 73.438 45.9633 73.438C49.3661 73.438 52.463 73.2873 52.463 73.0455Z" fill="#393637"/>
<path opacity="0.878" d="M51.9541 73.0321C51.9541 72.5522 39.9714 72.552 39.9714 73.0321C39.9714 73.2525 42.8101 73.3941 45.9634 73.3941C49.1156 73.3939 51.9541 73.2527 51.9541 73.0321Z" fill="#363233"/>
<path opacity="0.9024" d="M51.4449 73.018C51.4449 72.5792 40.4805 72.5787 40.4805 73.018C40.4805 73.2179 43.0601 73.3494 45.9632 73.3494C48.8655 73.3497 51.4449 73.2179 51.4449 73.018Z" fill="#322E30"/>
<path opacity="0.9268" d="M50.9353 73.0042C50.9353 72.6061 40.9895 72.6057 40.9895 73.0042C40.9895 73.183 43.3101 73.3053 45.963 73.3053C48.6152 73.3053 50.9353 73.183 50.9353 73.0042Z" fill="#2E2B2C"/>
<path opacity="0.9512" d="M50.4266 72.9906C50.4266 72.6331 41.499 72.6329 41.499 72.9906C41.499 73.1484 43.5606 73.2611 45.9634 73.2611C48.3653 73.2611 50.4266 73.1486 50.4266 72.9906Z" fill="#2A2728"/>
<path opacity="0.9756" d="M49.9174 72.9767C49.9174 72.6599 42.0083 72.6599 42.0083 72.9767C42.0083 73.1138 43.8108 73.2167 45.9632 73.2167C48.1147 73.2167 49.9174 73.1138 49.9174 72.9767Z" fill="#272324"/>
<path d="M42.5173 72.9631C42.5173 73.0792 44.0608 73.1725 45.963 73.1725C47.8644 73.1725 49.4081 73.0792 49.4081 72.9631C49.4081 72.6869 42.5173 72.6869 42.5173 72.9631Z" fill="#231F20"/>
</g>
<defs>
<linearGradient id="paint0_linear_60_299" x1="60.311" y1="-17.5595" x2="15.8673" y2="42.6882" gradientUnits="userSpaceOnUse">
<stop stop-color="white"/>
<stop offset="0.0859" stop-color="#C5CCE4"/>
<stop offset="0.1704" stop-color="#94A1CD"/>
<stop offset="0.2498" stop-color="#6E7FBB"/>
<stop offset="0.3227" stop-color="#5367AE"/>
<stop offset="0.3869" stop-color="#4258A6"/>
<stop offset="0.4355" stop-color="#3C53A3"/>
<stop offset="1" stop-color="#252064"/>
</linearGradient>
<linearGradient id="paint1_linear_60_299" x1="79.7388" y1="-13.4778" x2="26.6311" y2="64.4542" gradientUnits="userSpaceOnUse">
<stop stop-color="white"/>
<stop offset="0.005" stop-color="#F3F3F3"/>
<stop offset="0.0228" stop-color="#CCCDCE"/>
<stop offset="0.0419" stop-color="#ABACAE"/>
<stop offset="0.0624" stop-color="#919193"/>
<stop offset="0.0846" stop-color="#7C7D7F"/>
<stop offset="0.1095" stop-color="#6D6E71"/>
<stop offset="0.1392" stop-color="#656669"/>
<stop offset="0.1863" stop-color="#626366"/>
<stop offset="0.2241" stop-color="#5F5F62"/>
<stop offset="0.5142" stop-color="#484849"/>
<stop offset="0.7792" stop-color="#3A393A"/>
<stop offset="0.9946" stop-color="#353435"/>
</linearGradient>
<linearGradient id="paint2_linear_60_299" x1="75.0022" y1="-6.16502" x2="49.1351" y2="54.3553" gradientUnits="userSpaceOnUse">
<stop stop-color="white"/>
<stop offset="0.0859" stop-color="#C5CCE4"/>
<stop offset="0.1704" stop-color="#94A1CD"/>
<stop offset="0.2498" stop-color="#6E7FBB"/>
<stop offset="0.3227" stop-color="#5367AE"/>
<stop offset="0.3869" stop-color="#4258A6"/>
<stop offset="0.4355" stop-color="#3C53A3"/>
<stop offset="1" stop-color="#252064"/>
</linearGradient>
<linearGradient id="paint3_linear_60_299" x1="3.14968" y1="73.7244" x2="63.5888" y2="-2.22314" gradientUnits="userSpaceOnUse">
<stop stop-color="white"/>
<stop offset="0.0859" stop-color="#C5CCE4"/>
<stop offset="0.1704" stop-color="#94A1CD"/>
<stop offset="0.2498" stop-color="#6E7FBB"/>
<stop offset="0.3227" stop-color="#5367AE"/>
<stop offset="0.3869" stop-color="#4258A6"/>
<stop offset="0.4355" stop-color="#3C53A3"/>
<stop offset="1" stop-color="#252064"/>
</linearGradient>
<linearGradient id="paint4_linear_60_299" x1="28.2496" y1="77.8821" x2="82.9381" y2="-1.42523" gradientUnits="userSpaceOnUse">
<stop stop-color="white"/>
<stop offset="0.005" stop-color="#F3F3F3"/>
<stop offset="0.0228" stop-color="#CCCDCE"/>
<stop offset="0.0419" stop-color="#ABACAE"/>
<stop offset="0.0624" stop-color="#919193"/>
<stop offset="0.0846" stop-color="#7C7D7F"/>
<stop offset="0.1095" stop-color="#6D6E71"/>
<stop offset="0.1392" stop-color="#656669"/>
<stop offset="0.1863" stop-color="#626366"/>
<stop offset="0.2241" stop-color="#5F5F62"/>
<stop offset="0.5142" stop-color="#484849"/>
<stop offset="0.7792" stop-color="#3A393A"/>
<stop offset="0.9946" stop-color="#353435"/>
</linearGradient>
<linearGradient id="paint5_linear_60_299" x1="38.3636" y1="79.747" x2="82.1264" y2="6.80437" gradientUnits="userSpaceOnUse">
<stop stop-color="#252064"/>
<stop offset="0.5645" stop-color="#3C53A3"/>
<stop offset="0.6131" stop-color="#4258A6"/>
<stop offset="0.6773" stop-color="#5367AE"/>
<stop offset="0.7502" stop-color="#6E7FBB"/>
<stop offset="0.8296" stop-color="#94A1CD"/>
<stop offset="0.9141" stop-color="#C5CCE4"/>
<stop offset="1" stop-color="white"/>
</linearGradient>
<linearGradient id="paint6_linear_60_299" x1="35.8774" y1="38.9115" x2="39.9952" y2="-4.75355" gradientUnits="userSpaceOnUse">
<stop stop-color="white"/>
<stop offset="0.0859" stop-color="#C5CCE4"/>
<stop offset="0.1704" stop-color="#94A1CD"/>
<stop offset="0.2498" stop-color="#6E7FBB"/>
<stop offset="0.3227" stop-color="#5367AE"/>
<stop offset="0.3869" stop-color="#4258A6"/>
<stop offset="0.4355" stop-color="#3C53A3"/>
<stop offset="1" stop-color="#252064"/>
</linearGradient>
<linearGradient id="paint7_linear_60_299" x1="49.2641" y1="40.985" x2="56.6517" y2="-3.28154" gradientUnits="userSpaceOnUse">
<stop stop-color="white"/>
<stop offset="0.005" stop-color="#F3F3F3"/>
<stop offset="0.0228" stop-color="#CCCDCE"/>
<stop offset="0.0419" stop-color="#ABACAE"/>
<stop offset="0.0624" stop-color="#919193"/>
<stop offset="0.0846" stop-color="#7C7D7F"/>
<stop offset="0.1095" stop-color="#6D6E71"/>
<stop offset="0.1392" stop-color="#656669"/>
<stop offset="0.1863" stop-color="#626366"/>
<stop offset="0.2241" stop-color="#5F5F62"/>
<stop offset="0.5142" stop-color="#484849"/>
<stop offset="0.7792" stop-color="#3A393A"/>
<stop offset="0.9946" stop-color="#353435"/>
</linearGradient>
<linearGradient id="paint8_linear_60_299" x1="61.6065" y1="6.8293" x2="60.7817" y2="43.0842" gradientUnits="userSpaceOnUse">
<stop stop-color="#252064"/>
<stop offset="0.4946" stop-color="#3C53A3"/>
<stop offset="0.7473" stop-color="#9CA7D0"/>
<stop offset="1" stop-color="white"/>
</linearGradient>
</defs>
</svg>
