<svg width="111" height="41" viewBox="0 0 111 41" fill="none" xmlns="http://www.w3.org/2000/svg">
<path opacity="0.5" d="M55.3385 40.533C85.9011 40.533 110.677 39.859 110.677 39.0276C110.677 38.1962 85.9011 37.5222 55.3385 37.5222C24.7759 37.5222 0 38.1962 0 39.0276C0 39.859 24.7759 40.533 55.3385 40.533Z" fill="#496A75"/>
<path d="M12.0134 39.2512C15.592 39.2512 18.4931 35.185 18.4931 30.1692C18.4931 25.1533 15.592 21.0872 12.0134 21.0872C8.43474 21.0872 5.53369 25.1533 5.53369 30.1692C5.53369 35.185 8.43474 39.2512 12.0134 39.2512Z" fill="#19283B"/>
<path d="M19.3235 21.0872H11.9258V39.2512H19.3235V21.0872Z" fill="#19283B"/>
<path d="M19.3552 39.2514C22.9338 39.2514 25.8349 35.1853 25.8349 30.1694C25.8349 25.1536 22.9338 21.0874 19.3552 21.0874C15.7765 21.0874 12.8755 25.1536 12.8755 30.1694C12.8755 35.1853 15.7765 39.2514 19.3552 39.2514Z" fill="#0C1723"/>
<path d="M66.6823 39.2512C70.261 39.2512 73.162 35.185 73.162 30.1692C73.162 25.1533 70.261 21.0872 66.6823 21.0872C63.1037 21.0872 60.2026 25.1533 60.2026 30.1692C60.2026 35.185 63.1037 39.2512 66.6823 39.2512Z" fill="#19283B"/>
<path d="M73.9927 21.0872H66.595V39.2512H73.9927V21.0872Z" fill="#19283B"/>
<path d="M74.0241 39.2514C77.6027 39.2514 80.5038 35.1853 80.5038 30.1694C80.5038 25.1536 77.6027 21.0874 74.0241 21.0874C70.4455 21.0874 67.5444 25.1536 67.5444 30.1694C67.5444 35.1853 70.4455 39.2514 74.0241 39.2514Z" fill="#0C1723"/>
<path d="M27.1611 12.7269L37.4387 2.51495C37.9247 2.03207 38.5311 1.70741 39.1867 1.5759C42.0725 0.997493 51.2163 -0.42111 69.5383 0.121323C92.3406 0.796308 100.608 15.1542 100.608 15.1542H28.7961L27.1611 12.7269Z" fill="#EF3F1D"/>
<path d="M61.2768 14.8475L65.816 4.48871C66.3594 3.24894 65.4877 1.83592 64.1942 1.85967L40.0861 2.30064C39.2637 2.31566 38.477 2.65795 37.8832 3.25906L27.1611 14.1123L61.2768 14.8475Z" fill="#19283B"/>
<path d="M28.0486 13.7462L38.1349 3.53641C38.6641 3.00079 39.3593 2.69849 40.0921 2.68504L64.2259 2.2439C64.7014 2.2439 65.1385 2.49713 65.3951 2.92115C65.6516 3.34501 65.6852 3.8705 65.485 4.32701L61.0457 14.4576L28.0486 13.7462Z" fill="#56768B"/>
<path d="M64.3469 6.92505H55.3121C53.7597 6.92505 52.5012 8.25389 52.5012 9.89306V14.1113C52.5012 14.1662 52.5063 14.2196 52.5089 14.2736L61.046 14.4576L64.3469 6.92505Z" fill="#466677"/>
<path d="M47.4426 6.92505H34.7873L30.6787 11.0838V13.8031L50.248 14.225C50.2494 14.1871 50.2535 14.1497 50.2535 14.1115V9.89324C50.2535 8.25389 48.995 6.92505 47.4426 6.92505Z" fill="#466677"/>
<g opacity="0.5">
<path d="M44.5032 2.60448L34.4886 13.1793L34.0134 13.8749L36.1037 13.92L46.8603 2.56152L44.5032 2.60448Z" fill="white"/>
<path d="M62.2886 2.27954L52.1458 2.46484L41.1936 14.0297L50.9612 14.2403L62.2886 2.27954Z" fill="white"/>
</g>
<path d="M42.6926 11.2178H34.022C33.7585 11.2178 33.543 11.4455 33.543 11.7237C33.543 12.0019 33.7585 12.2295 34.022 12.2295H42.6926C42.9561 12.2295 43.1716 12.0019 43.1716 11.7237C43.1716 11.4455 42.9559 11.2178 42.6926 11.2178Z" fill="#0C1723"/>
<path d="M56.5794 11.5939L47.9113 11.3766C47.6479 11.37 47.4273 11.5921 47.421 11.8703C47.4147 12.1483 47.6252 12.3813 47.8885 12.388L56.5565 12.6052C56.8198 12.6118 57.0406 12.3897 57.0467 12.1115C57.0532 11.8335 56.8429 11.6003 56.5794 11.5939Z" fill="#0C1723"/>
<path d="M59.6661 18.578L62.3881 12.3412C55.9073 12.0413 46.3545 11.8416 32.4018 11.8416C14.5158 11.8416 2.2019 18.396 2.2019 18.396L8.35204 21.3472H75.4114L74.6174 18.578H59.6661Z" fill="#FF6333"/>
<path d="M16.6082 15.7853H39.3849C39.3849 15.7853 48.8312 13.363 56.6029 12.8501H27.8616C27.8616 12.8501 23.7731 13.3773 16.6082 15.7853Z" fill="#FF8657"/>
<path d="M39.0278 11.8579C36.9369 11.8473 35.7917 11.8415 33.4615 11.8415C32.7436 11.8415 32.7104 11.8213 32.011 11.8415C29.1006 12.6702 25.325 13.534 22.9772 14.6454C17.2275 17.367 13.7682 19.0096 13.6348 19.1029L14.64 20.7071C14.7457 20.6333 23.7485 14.4697 39.0278 11.8579Z" fill="#263C54"/>
<path d="M25.0601 18.8034L26.0178 20.4395C26.1383 20.3609 37.1991 13.274 54.9463 12.0813C51.5479 11.9935 50.7221 11.9263 46.1589 11.8857C40.4918 12.6142 37.3572 13.6402 35.0944 14.4577C29.0265 16.6492 25.201 18.7114 25.0601 18.8034Z" fill="#263C54"/>
<path d="M38.3574 18.3962C38.3574 18.3962 44.3506 13.1069 69.0166 13.1069L76.195 10.9504L103.99 12.3755C105.54 12.455 106.999 13.1713 108.055 14.3716L108.674 15.0754L105.517 19.3894L39.0815 21.8567L38.3574 18.3962Z" fill="#EF3F1D"/>
<path d="M42.0984 17.41C43.4202 17.0171 44.7543 16.6697 46.0936 16.3477C47.4331 16.026 48.7775 15.7239 50.1275 15.4499C52.8288 14.9122 55.5506 14.4707 58.2926 14.1912C59.6632 14.0494 61.0388 13.9474 62.4183 13.9057L63.4534 13.8847L64.4889 13.887C64.8322 13.8928 65.1759 13.9076 65.5189 13.906L66.5479 13.8999L74.7783 13.8812L74.6952 13.8926L78.3206 12.8912C79.5284 12.555 80.7381 12.2262 81.9487 11.9005L81.9887 11.8896L82.0245 11.89L85.8972 11.9302L89.7698 11.992L91.7061 12.0302L93.6423 12.083C94.9332 12.1181 96.224 12.1502 97.5149 12.2026C96.2242 12.255 94.9332 12.287 93.6423 12.3222L91.7061 12.375L89.7698 12.4132L85.8972 12.475L82.0245 12.5152L82.1001 12.5049C80.8953 12.8533 79.6897 13.1986 78.4823 13.5365L74.8618 14.5575L74.8209 14.569L74.7785 14.5688L66.5376 14.5499L65.5075 14.5438C65.1642 14.5416 64.8221 14.5225 64.4793 14.5127L63.4559 14.4984L62.4321 14.5072C61.067 14.5361 59.7011 14.6123 58.3373 14.7246C55.6098 14.9563 52.8898 15.3236 50.1825 15.7808C47.4728 16.2263 44.7782 16.7794 42.0984 17.41Z" fill="#FF7955"/>
<path d="M41.7326 18.3962H74.7891L82.399 15.0439L108.674 15.0754L109.838 18.6925C110.229 19.9103 110.091 21.2484 109.46 22.3485L108.027 24.847L85.7567 33.5516C83.9713 34.194 82.0981 34.5218 80.212 34.5218H41.0581L38.9452 21.9057C38.6385 20.0752 39.9721 18.3962 41.7326 18.3962Z" fill="#A31332"/>
<path d="M41.7326 18.3962H74.7891L82.399 15.0439L108.674 15.0754L109.809 18.6033C110.219 19.8776 110.074 21.2783 109.414 22.4293L108.027 24.8472L85.7567 33.5518C83.9713 34.1941 82.0981 34.5219 80.212 34.5219H41.0581L38.9452 21.9059C38.6385 20.0752 39.9721 18.3962 41.7326 18.3962Z" fill="#A31332"/>
<path d="M82.2723 25.7296H39.845V25.5373H82.2136L85.88 22.7625H109.222L109.116 22.9549H85.9389L82.2723 25.7296Z" fill="#0C1723"/>
<path d="M82.0657 26.3292H39.686L39.9115 27.6757H82.4684L86.5164 24.6753H108.125L108.898 23.3289H86.1137L82.0657 26.3292Z" fill="#0C1723"/>
<path d="M81.4265 33.8067H83.0605L96.1534 29.811L104.043 26.9723L104.851 18.9436H81.4265V33.8067Z" fill="#0C1723"/>
<path d="M66.102 18.9436H42.6775V34.5219H66.102V18.9436Z" fill="#0C1723"/>
<path d="M49.8756 39.084C53.3496 39.084 56.1659 35.1367 56.1659 30.2675C56.1659 25.3982 53.3496 21.4509 49.8756 21.4509C46.4017 21.4509 43.5854 25.3982 43.5854 30.2675C43.5854 35.1367 46.4017 39.084 49.8756 39.084Z" fill="#19283B"/>
<path d="M56.9721 21.4509H49.7905V39.084H56.9721V21.4509Z" fill="#19283B"/>
<path d="M57.0026 39.084C60.4766 39.084 63.2928 35.1367 63.2928 30.2675C63.2928 25.3982 60.4766 21.4509 57.0026 21.4509C53.5286 21.4509 50.7124 25.3982 50.7124 30.2675C50.7124 35.1367 53.5286 39.084 57.0026 39.084Z" fill="#494F5B"/>
<path d="M57.0027 38.7758C53.6953 38.7758 51.0046 34.959 51.0046 30.2677C51.0046 25.5763 53.6953 21.7595 57.0027 21.7595C60.31 21.7595 63.001 25.5763 63.001 30.2677C63.001 34.959 60.3102 38.7758 57.0027 38.7758ZM57.0027 22.6816C54.1768 22.6816 51.8778 26.0847 51.8778 30.2677C51.8778 34.4506 54.1768 37.8537 57.0027 37.8537C59.8287 37.8537 62.1278 34.4506 62.1278 30.2677C62.1278 26.0847 59.8287 22.6816 57.0027 22.6816Z" fill="#19283B"/>
<path d="M57.0024 36.5333C59.0221 36.5333 60.6595 33.7282 60.6595 30.2678C60.6595 26.8074 59.0221 24.0022 57.0024 24.0022C54.9826 24.0022 53.3452 26.8074 53.3452 30.2678C53.3452 33.7282 54.9826 36.5333 57.0024 36.5333Z" fill="#7B98BA"/>
<path d="M56.6031 35.6801C55.3542 35.6801 53.54 33.5717 53.54 30.2677C53.54 26.9637 55.354 24.8552 56.6031 24.8552C57.8519 24.8552 59.6661 26.9637 59.6661 30.2677C59.6661 33.5717 57.8519 35.6801 56.6031 35.6801Z" fill="#C1E0F4"/>
<path d="M56.6029 24.8552C56.5195 24.8552 56.4334 24.8654 56.3457 24.8839C57.3817 25.143 58.7166 27.1844 58.7166 30.2677C58.7166 33.351 57.3817 35.3925 56.3457 35.6515C56.4335 35.67 56.5195 35.6801 56.6029 35.6801C57.8518 35.6801 59.666 33.5717 59.666 30.2677C59.6661 26.9637 57.852 24.8552 56.6029 24.8552Z" fill="#B2D3ED"/>
<path d="M56.8692 32.0789C56.4513 32.0789 55.8442 31.3734 55.8442 30.2677C55.8442 29.1621 56.4513 28.4565 56.8692 28.4565C57.2871 28.4565 57.8942 29.1621 57.8942 30.2677C57.8942 31.3734 57.2871 32.0789 56.8692 32.0789Z" fill="#7B98BA"/>
<path d="M57.0026 31.2242C56.7819 31.2242 56.4614 30.8517 56.4614 30.2679C56.4614 29.684 56.7821 29.3115 57.0026 29.3115C57.2234 29.3115 57.5438 29.684 57.5438 30.2679C57.5438 30.8517 57.2232 31.2242 57.0026 31.2242Z" fill="#B2D3ED"/>
<path d="M57.379 29.7663C57.4503 29.9921 57.4012 30.2127 57.2695 30.2589C57.1379 30.3052 56.9732 30.1599 56.9021 29.9341C56.8308 29.7083 56.8799 29.4877 57.0116 29.4414C57.1433 29.3952 57.3078 29.5406 57.379 29.7663Z" fill="#DCF1FF"/>
<path d="M56.6257 28.6951C56.699 28.3517 56.728 28.0084 56.7442 27.665C56.758 27.3217 56.7544 26.9784 56.736 26.635C56.7182 26.2917 56.6843 25.9483 56.63 25.605C56.5745 25.2616 56.505 24.9183 56.3862 24.575H57.3522C57.2334 24.9183 57.1639 25.2616 57.1084 25.605C57.0539 25.9483 57.0202 26.2917 57.0024 26.635C56.984 26.9784 56.9804 27.3217 56.9942 27.665C57.0106 28.0084 57.0396 28.3517 57.1127 28.6951H56.6257Z" fill="#7B98BA"/>
<path d="M57.1127 31.76C57.0394 32.1034 57.0104 32.4467 56.9942 32.79C56.9804 33.1334 56.984 33.4767 57.0024 33.8201C57.0202 34.1634 57.0541 34.5068 57.1084 34.8501C57.1639 35.1934 57.2334 35.5368 57.3522 35.8801H56.3862C56.505 35.5368 56.5745 35.1934 56.63 34.8501C56.6845 34.5068 56.7182 34.1634 56.736 33.8201C56.7544 33.4767 56.758 33.1334 56.7442 32.79C56.7278 32.4467 56.6988 32.1034 56.6257 31.76H57.1127Z" fill="#7B98BA"/>
<path d="M56.0402 29.65C55.9239 29.4008 55.7749 29.183 55.6167 28.9743C55.4565 28.7674 55.2835 28.573 55.0996 28.3889C54.916 28.2045 54.7208 28.0316 54.5101 27.8732C54.2988 27.7157 54.0772 27.5681 53.8191 27.4555L54.4572 26.4866C54.5398 26.7681 54.7342 27.296 54.8636 27.5327C54.9937 27.7684 55.1392 27.9895 55.2964 28.1994C55.4532 28.4095 55.6209 28.6092 55.8014 28.7965C55.9839 28.982 56.1757 29.1584 56.4001 29.3033L56.0402 29.65Z" fill="#7B98BA"/>
<path d="M57.7701 30.8884C57.8888 31.1406 58.0404 31.3614 58.2013 31.5732C58.364 31.7831 58.5397 31.9806 58.7262 32.1677C58.9124 32.3551 59.1103 32.5311 59.3235 32.6925C59.5375 32.853 59.7617 33.0037 60.0224 33.1193L59.309 33.807C59.2238 33.5224 59.1021 33.2728 58.97 33.0332C58.8373 32.7943 58.6892 32.5702 58.5294 32.3573C58.37 32.1441 58.1997 31.9415 58.0167 31.7513C57.8316 31.5629 57.6372 31.3835 57.4102 31.2354L57.7701 30.8884Z" fill="#7B98BA"/>
<path d="M56.3361 31.2306C56.1026 31.3586 55.8995 31.5203 55.7053 31.6918C55.5128 31.8652 55.3322 32.0519 55.1619 32.25C54.9913 32.4477 54.8315 32.6574 54.6861 32.883C54.5413 33.1096 54.3237 33.5318 54.2226 33.8067L53.7407 32.8444C54.0057 32.7512 54.1349 32.6588 54.3562 32.5172C54.5767 32.3748 54.783 32.2166 54.9784 32.0463C55.174 31.8764 55.3596 31.6951 55.5331 31.5006C55.7047 31.3041 55.8678 31.0979 56.0002 30.8579L56.3361 31.2306Z" fill="#7B98BA"/>
<path d="M57.4722 29.3778C57.7085 29.247 57.9144 29.0823 58.1114 28.9081C58.3066 28.7318 58.49 28.5422 58.6632 28.3413C58.8366 28.1409 58.9992 27.9281 59.1475 27.6999C59.2951 27.4706 59.4329 27.2306 59.5369 26.9531L60.203 27.6919C59.9353 27.7879 59.7016 27.9215 59.4776 28.0659C59.2542 28.2111 59.0452 28.3721 58.8469 28.5451C58.6484 28.7179 58.4601 28.9019 58.2839 29.0993C58.1094 29.2985 57.9435 29.5076 57.8083 29.7503L57.4722 29.3778Z" fill="#7B98BA"/>
<path d="M89.1191 39.084C92.593 39.084 95.4093 35.1367 95.4093 30.2675C95.4093 25.3982 92.593 21.4509 89.1191 21.4509C85.6451 21.4509 82.8289 25.3982 82.8289 30.2675C82.8289 35.1367 85.6451 39.084 89.1191 39.084Z" fill="#19283B"/>
<path d="M96.2157 21.4509H89.0342V39.084H96.2157V21.4509Z" fill="#19283B"/>
<path d="M96.2463 39.084C99.7202 39.084 102.536 35.1367 102.536 30.2675C102.536 25.3982 99.7202 21.4509 96.2463 21.4509C92.7723 21.4509 89.9561 25.3982 89.9561 30.2675C89.9561 35.1367 92.7723 39.084 96.2463 39.084Z" fill="#494F5B"/>
<path d="M96.2462 38.7758C92.9389 38.7758 90.248 34.959 90.248 30.2677C90.248 25.5763 92.9387 21.7595 96.2462 21.7595C99.5538 21.7595 102.244 25.5763 102.244 30.2677C102.244 34.959 99.5536 38.7758 96.2462 38.7758ZM96.2462 22.6816C93.4202 22.6816 91.1212 26.0847 91.1212 30.2677C91.1212 34.4506 93.4202 37.8537 96.2462 37.8537C99.0723 37.8537 101.371 34.4506 101.371 30.2677C101.371 26.0847 99.0723 22.6816 96.2462 22.6816Z" fill="#19283B"/>
<path d="M96.2463 36.5333C98.266 36.5333 99.9034 33.7282 99.9034 30.2678C99.9034 26.8074 98.266 24.0022 96.2463 24.0022C94.2265 24.0022 92.5891 26.8074 92.5891 30.2678C92.5891 33.7282 94.2265 36.5333 96.2463 36.5333Z" fill="#7B98BA"/>
<path d="M95.8467 35.6801C94.5979 35.6801 92.7837 33.5717 92.7837 30.2677C92.7837 26.9637 94.5977 24.8552 95.8467 24.8552C97.0956 24.8552 98.9097 26.9637 98.9097 30.2677C98.9097 33.5717 97.0956 35.6801 95.8467 35.6801Z" fill="#C1E0F4"/>
<path d="M95.8468 24.8552C95.7634 24.8552 95.6773 24.8654 95.5896 24.8839C96.6256 25.143 97.9605 27.1844 97.9605 30.2677C97.9605 33.351 96.6256 35.3925 95.5896 35.6515C95.6774 35.67 95.7634 35.6801 95.8468 35.6801C97.0957 35.6801 98.9099 33.5717 98.9099 30.2677C98.9099 26.9637 97.0957 24.8552 95.8468 24.8552Z" fill="#B2D3ED"/>
<path d="M96.1131 32.0789C95.6952 32.0789 95.0881 31.3734 95.0881 30.2677C95.0881 29.1621 95.6952 28.4565 96.1131 28.4565C96.531 28.4565 97.1381 29.1621 97.1381 30.2677C97.1381 31.3734 96.531 32.0789 96.1131 32.0789Z" fill="#7B98BA"/>
<path d="M96.2463 31.2242C96.5452 31.2242 96.7875 30.796 96.7875 30.2679C96.7875 29.7397 96.5452 29.3115 96.2463 29.3115C95.9474 29.3115 95.7051 29.7397 95.7051 30.2679C95.7051 30.796 95.9474 31.2242 96.2463 31.2242Z" fill="#B2D3ED"/>
<path d="M96.6229 29.7663C96.6941 29.9921 96.645 30.2127 96.5134 30.2589C96.3817 30.3052 96.217 30.1599 96.1457 29.9341C96.0745 29.7083 96.1236 29.4877 96.2552 29.4414C96.3871 29.3952 96.5516 29.5406 96.6229 29.7663Z" fill="#DCF1FF"/>
<path d="M95.8693 28.6951C95.9425 28.3517 95.9715 28.0084 95.9879 27.665C96.0017 27.3217 95.998 26.9784 95.9797 26.635C95.9619 26.2917 95.928 25.9483 95.8737 25.605C95.8181 25.2616 95.7486 24.9183 95.6299 24.575H96.5958C96.4771 24.9183 96.4076 25.2616 96.352 25.605C96.2975 25.9483 96.2638 26.2917 96.246 26.635C96.2277 26.9784 96.224 27.3217 96.2378 27.665C96.2542 28.0084 96.2832 28.3517 96.3564 28.6951H95.8693Z" fill="#7B98BA"/>
<path d="M96.3566 31.76C96.2835 32.1034 96.2543 32.4467 96.2381 32.79C96.2243 33.1334 96.2279 33.4767 96.2463 33.8201C96.2641 34.1634 96.298 34.5068 96.3523 34.8501C96.4078 35.1934 96.4773 35.5368 96.5961 35.8801H95.6301C95.7489 35.5368 95.8184 35.1934 95.8739 34.8501C95.9284 34.5068 95.9621 34.1634 95.9799 33.8201C95.9983 33.4767 96.0019 33.1334 95.9881 32.79C95.9717 32.4467 95.9427 32.1034 95.8696 31.76H96.3566Z" fill="#7B98BA"/>
<path d="M95.2841 29.65C95.1677 29.4008 95.019 29.183 94.8606 28.9743C94.7004 28.7674 94.5273 28.573 94.3434 28.3889C94.1599 28.2045 93.9647 28.0316 93.754 27.8732C93.5427 27.7157 93.3211 27.5681 93.063 27.4555L93.7011 26.4866C93.7837 26.7681 93.9781 27.296 94.1075 27.5327C94.2376 27.7684 94.3831 27.9895 94.5403 28.1994C94.6971 28.4095 94.8647 28.6092 95.0453 28.7965C95.2278 28.982 95.4196 29.1584 95.644 29.3033L95.2841 29.65Z" fill="#7B98BA"/>
<path d="M97.0142 30.8884C97.133 31.1406 97.2846 31.3614 97.4454 31.5732C97.6082 31.7831 97.7839 31.9806 97.9704 32.1677C98.1566 32.3551 98.3544 32.5311 98.5677 32.6925C98.7816 32.853 99.0058 33.0037 99.2666 33.1193L98.5532 33.807C98.4679 33.5224 98.3462 33.2728 98.2144 33.0332C98.0816 32.7943 97.9335 32.5702 97.7737 32.3573C97.6143 32.1441 97.444 31.9415 97.2608 31.7513C97.0757 31.5629 96.8813 31.3835 96.6543 31.2354L97.0142 30.8884Z" fill="#7B98BA"/>
<path d="M95.58 31.2306C95.3465 31.3586 95.1435 31.5203 94.9492 31.6918C94.7567 31.8652 94.5761 32.0519 94.4058 32.25C94.2352 32.4477 94.0754 32.6574 93.93 32.883C93.7852 33.1096 93.5676 33.5318 93.4665 33.8067L92.9846 32.8444C93.2495 32.7512 93.3788 32.6588 93.6 32.5172C93.8206 32.3748 94.0269 32.2166 94.2223 32.0463C94.4179 31.8764 94.6035 31.6951 94.777 31.5006C94.9486 31.3041 95.1117 31.0979 95.2441 30.8579L95.58 31.2306Z" fill="#7B98BA"/>
<path d="M96.7161 29.3778C96.9524 29.247 97.1582 29.0823 97.3552 28.9081C97.5505 28.7318 97.7339 28.5422 97.9069 28.3413C98.0804 28.1409 98.2429 27.9281 98.3912 27.6999C98.5388 27.4706 98.6766 27.2306 98.7805 26.9531L99.4466 27.6919C99.1788 27.7879 98.9452 27.9215 98.7211 28.0659C98.4977 28.2111 98.2887 28.3721 98.0905 28.5451C97.8919 28.7179 97.7037 28.9019 97.5274 29.0993C97.353 29.2985 97.1871 29.5076 97.0519 29.7503L96.7161 29.3778Z" fill="#7B98BA"/>
<path d="M45.4795 34.5218C46.1522 34.1377 46.6851 33.497 46.943 32.6966C49.8736 23.6008 51.3623 18.7893 59.2548 20.1634C64.845 21.1366 65.3363 29.9341 64.9294 34.5218H69.0165V18.396H43.3164C40.7298 18.396 38.7705 20.8628 39.2209 23.5524L40.1584 34.5216H45.4795V34.5218Z" fill="#A31332"/>
<path d="M69.0167 26.3291H64.428C64.5356 26.7708 64.6267 27.2212 64.7029 27.6756H69.0167V26.3291Z" fill="#0C1723"/>
<path d="M39.9117 27.6756H48.6266C48.7986 27.2072 48.9717 26.7582 49.1472 26.3291H39.686L39.9117 27.6756Z" fill="#0C1723"/>
<path d="M49.4837 25.5371H39.845V25.7294H49.4004C49.4282 25.6656 49.4556 25.6 49.4837 25.5371Z" fill="#0C1723"/>
<path d="M69.0166 25.5371H64.2136C64.2327 25.601 64.2519 25.6649 64.2702 25.7294H69.0166V25.5371Z" fill="#0C1723"/>
<path d="M80.4335 34.5219H80.9724C82.355 34.5219 83.7281 34.2816 85.0368 33.8108L85.0571 33.8035C85.706 33.57 86.2048 33.0146 86.3913 32.3182L86.395 32.3047C89.3256 21.2949 90.8143 18.8719 98.7068 20.5353C101.847 21.1971 103.376 23.8357 104.043 26.9722L108.027 24.847L106.459 18.4274L77.8093 18.396L80.4335 34.5219Z" fill="#A31332"/>
<path d="M107.517 22.7625H102.252C102.301 22.8255 102.349 22.8898 102.396 22.9547H107.564L107.517 22.7625Z" fill="#0C1723"/>
<path d="M79.0026 25.7296H82.2721L85.9387 22.9547H89.7049C89.7455 22.8894 89.7862 22.8253 89.8272 22.7625H85.88L82.2134 25.5373H78.9712L79.0026 25.7296Z" fill="#0C1723"/>
<path d="M86.1137 23.3289L82.0657 26.3292H79.1003L79.3195 27.6757H82.4686L86.5166 24.6753H88.8191C89.0341 24.1832 89.2545 23.7352 89.4836 23.3289H86.1137Z" fill="#0C1723"/>
<path d="M107.656 23.3291H102.649C102.914 23.7472 103.144 24.1983 103.343 24.6756H107.985L107.656 23.3291Z" fill="#0C1723"/>
<path d="M1.87178 26.0051L0.780273 28.1149V28.7735H40.5318L39.9189 25.8589C39.9189 25.8589 1.87178 25.7379 1.87178 26.0051Z" fill="#A31332"/>
<path d="M40.1584 27.0025H3.37095C2.5903 27.0025 1.91462 26.4295 1.74627 25.6246L0.658257 20.4257C0.440131 19.3837 1.19126 18.3962 2.2019 18.3962H38.3574L40.1584 27.0025Z" fill="#EF3F1D"/>
<path d="M2.21764 23.4204C1.78122 21.3347 3.28469 19.3579 5.30755 19.3579H35.0844C36.5691 19.3579 37.8541 20.4477 38.1744 21.9784C38.6108 24.0641 37.1073 26.0409 35.0844 26.0409H5.30755C3.82311 26.0409 2.53811 24.9511 2.21764 23.4204Z" fill="#263C54"/>
<path d="M29.6074 25.2754H10.815C10.252 25.2754 9.774 24.87 9.65245 24.2895V24.2893L9.10041 21.6514C9.02217 21.2775 9.10739 20.8919 9.3346 20.5932C9.56181 20.2944 9.90009 20.1233 10.263 20.1233H29.0553C29.6184 20.1233 30.0964 20.5286 30.2179 21.1093L30.77 23.7471C30.8482 24.1212 30.7628 24.5069 30.5356 24.8056C30.3084 25.1042 29.9701 25.2754 29.6074 25.2754ZM9.82307 24.2497C9.92681 24.7451 10.3348 25.0911 10.815 25.0911H29.6074C29.917 25.0911 30.2055 24.9449 30.3994 24.6901C30.5932 24.4352 30.6661 24.106 30.5993 23.7867L30.0473 21.149C29.9436 20.6537 29.5358 20.3077 29.0553 20.3077H10.263C9.95335 20.3077 9.66467 20.4539 9.47082 20.7087C9.27715 20.9635 9.20432 21.2925 9.27103 21.6116L9.82307 24.2497Z" fill="#B2D3ED"/>
<path d="M29.6074 25.2754H10.815C10.252 25.2754 9.774 24.87 9.65245 24.2895V24.2893L9.10041 21.6514C9.02217 21.2775 9.10739 20.8919 9.3346 20.5932C9.56181 20.2944 9.90009 20.1233 10.263 20.1233H29.0553C29.6184 20.1233 30.0964 20.5286 30.2179 21.1093L30.77 23.7471C30.8482 24.1212 30.7628 24.5069 30.5356 24.8056C30.3084 25.1042 29.9701 25.2754 29.6074 25.2754ZM9.82307 24.2497C9.92681 24.7451 10.3348 25.0911 10.815 25.0911H29.6074C29.917 25.0911 30.2055 24.9449 30.3994 24.6901C30.5932 24.4352 30.6661 24.106 30.5993 23.7867L30.0473 21.149C29.9436 20.6537 29.5358 20.3077 29.0553 20.3077H10.263C9.95335 20.3077 9.66467 20.4539 9.47082 20.7087C9.27715 20.9635 9.20432 21.2925 9.27103 21.6116L9.82307 24.2497Z" fill="#B2D3ED"/>
<path d="M29.6073 24.5061H10.8149C10.5999 24.5061 10.4103 24.3452 10.3638 24.1236L9.81177 21.4855C9.7702 21.2864 9.85106 21.1427 9.90276 21.0747C9.95428 21.007 10.0697 20.8926 10.2627 20.8926H29.055C29.27 20.8926 29.4597 21.0536 29.5061 21.2752L30.0582 23.913C30.0997 24.1115 30.0191 24.2555 29.9672 24.3237C29.9155 24.3918 29.7999 24.5061 29.6073 24.5061ZM10.2629 21.077C10.1429 21.077 10.0711 21.1479 10.039 21.1903C10.0065 21.2326 9.95637 21.322 9.98239 21.4458L10.5344 24.0838C10.5632 24.2216 10.6813 24.3216 10.8151 24.3216H29.6074C29.7272 24.3216 29.7992 24.2506 29.8313 24.2081C29.8635 24.1659 29.9138 24.0763 29.8879 23.9526L29.3359 21.3149C29.3071 21.1771 29.189 21.077 29.0554 21.077H10.2629Z" fill="#B2D3ED"/>
<path d="M34.8254 25.3887C36.2485 25.3887 37.4021 24.1706 37.4021 22.668C37.4021 21.1654 36.2485 19.9473 34.8254 19.9473C33.4024 19.9473 32.2488 21.1654 32.2488 22.668C32.2488 24.1706 33.4024 25.3887 34.8254 25.3887Z" fill="#494F5B"/>
<path d="M34.1921 25.3887C35.6152 25.3887 36.7688 24.1706 36.7688 22.668C36.7688 21.1654 35.6152 19.9473 34.1921 19.9473C32.7691 19.9473 31.6155 21.1654 31.6155 22.668C31.6155 24.1706 32.7691 25.3887 34.1921 25.3887Z" fill="#B2D3ED"/>
<path d="M35.9828 22.668C35.9828 23.7122 35.1812 24.5587 34.1922 24.5587C33.2034 24.5587 32.4016 23.7122 32.4016 22.668C32.4016 21.6238 33.2032 20.7773 34.1922 20.7773C35.1812 20.7773 35.9828 21.6238 35.9828 22.668Z" fill="#DFE5F5"/>
<path d="M36.2324 22.6681C36.2324 23.8579 35.319 24.8223 34.1922 24.8223C33.0655 24.8223 32.1521 23.8578 32.1521 22.6681C32.1521 21.4785 33.0655 20.5139 34.1922 20.5139C35.319 20.5139 36.2324 21.4785 36.2324 22.6681Z" fill="#F9D153"/>
<path d="M32.7742 22.6681C32.7742 21.5904 33.5246 20.7001 34.5033 20.5415C34.4016 20.5251 34.2983 20.5139 34.1922 20.5139C33.0655 20.5139 32.1521 21.4785 32.1521 22.6681C32.1521 23.8579 33.0655 24.8223 34.1922 24.8223C34.2983 24.8223 34.4016 24.8111 34.5033 24.7947C33.5246 24.6363 32.7742 23.7458 32.7742 22.6681Z" fill="#E5A638"/>
<path d="M5.92259 25.3887C7.34563 25.3887 8.49924 24.1706 8.49924 22.668C8.49924 21.1654 7.34563 19.9473 5.92259 19.9473C4.49955 19.9473 3.34595 21.1654 3.34595 22.668C3.34595 24.1706 4.49955 25.3887 5.92259 25.3887Z" fill="#494F5B"/>
<path d="M5.28929 25.3887C6.71233 25.3887 7.86594 24.1706 7.86594 22.668C7.86594 21.1654 6.71233 19.9473 5.28929 19.9473C3.86625 19.9473 2.71265 21.1654 2.71265 22.668C2.71265 24.1706 3.86625 25.3887 5.28929 25.3887Z" fill="#B2D3ED"/>
<path d="M7.07996 22.668C7.07996 23.7122 6.27836 24.5587 5.28937 24.5587C4.30055 24.5587 3.49878 23.7122 3.49878 22.668C3.49878 21.6238 4.30038 20.7773 5.28937 20.7773C6.27836 20.7773 7.07996 21.6238 7.07996 22.668Z" fill="#DFE5F5"/>
<path d="M7.32957 22.6681C7.32957 23.8579 6.4162 24.8223 5.28942 24.8223C4.16264 24.8223 3.24927 23.8578 3.24927 22.6681C3.24927 21.4785 4.16264 20.5139 5.28942 20.5139C6.4162 20.5139 7.32957 21.4785 7.32957 22.6681Z" fill="#F9D153"/>
<path d="M3.87134 22.6681C3.87134 21.5904 4.62177 20.7001 5.60045 20.5415C5.49881 20.5251 5.39542 20.5139 5.28942 20.5139C4.16264 20.5139 3.24927 21.4785 3.24927 22.6681C3.24927 23.8579 4.16264 24.8223 5.28942 24.8223C5.39542 24.8223 5.49881 24.8111 5.60045 24.7947C4.62177 24.6363 3.87134 23.7458 3.87134 22.6681Z" fill="#E5A638"/>
<mask id="mask0_171_1283" style="mask-type:luminance" maskUnits="userSpaceOnUse" x="9" y="20" width="21" height="5">
<path d="M10.8149 24.4139C10.6406 24.4139 10.4868 24.2835 10.4491 24.1036L9.89702 21.4656C9.86332 21.3045 9.92863 21.1878 9.97072 21.1326C10.0126 21.0774 10.1064 20.9849 10.2627 20.9849H29.0551C29.2294 20.9849 29.3832 21.1153 29.421 21.2952L29.973 23.9331C30.0067 24.0943 29.9414 24.211 29.8993 24.2662C29.8574 24.3214 29.7636 24.4139 29.6073 24.4139H10.8149Z" fill="white"/>
</mask>
<g mask="url(#mask0_171_1283)">
<path d="M33.6293 21.4048H8.95728V21.497H33.6293V21.4048Z" fill="#B2D3ED"/>
<path d="M33.6293 21.8931H8.95728V21.9853H33.6293V21.8931Z" fill="#B2D3ED"/>
<path d="M33.6293 22.3813H8.95728V22.4736H33.6293V22.3813Z" fill="#B2D3ED"/>
<path d="M33.6293 22.8699H8.95728V22.9621H33.6293V22.8699Z" fill="#B2D3ED"/>
<path d="M33.6293 23.3579H8.95728V23.4501H33.6293V23.3579Z" fill="#B2D3ED"/>
<path d="M33.6293 23.8464H8.95728V23.9386H33.6293V23.8464Z" fill="#B2D3ED"/>
</g>
<path d="M0.780273 28.7732L1.66046 32.5252C1.66046 33.6277 2.14509 34.5217 2.74288 34.5217H40.026C40.8243 34.5217 41.4348 33.7707 41.3138 32.9375L40.7097 28.7732H0.780273Z" fill="#263C54"/>
<path d="M26.1174 35.4494H16.7275C16.3704 35.4494 16.0784 35.1573 16.0784 34.8003V31.1999C16.0784 30.8428 16.3705 30.5508 16.7275 30.5508H26.1174C26.4745 30.5508 26.7665 30.843 26.7665 31.1999V34.8003C26.7667 35.1574 26.4745 35.4494 26.1174 35.4494Z" fill="#E5A638"/>
<path d="M25.3293 35.4493H15.9394C15.5823 35.4493 15.2903 35.1571 15.2903 34.8001V31.1999C15.2903 30.8428 15.5825 30.5508 15.9394 30.5508H25.3293C25.6865 30.5508 25.9785 30.843 25.9785 31.1999V34.8003C25.9785 35.1573 25.6865 35.4493 25.3293 35.4493Z" fill="#F9D153"/>
<path d="M44.1492 21.9173H42.638C42.3411 21.9173 42.0984 21.6607 42.0984 21.3474C42.0984 21.034 42.3413 20.7776 42.638 20.7776H44.1492C44.4461 20.7776 44.6888 21.0341 44.6888 21.3474C44.6888 21.6607 44.4459 21.9173 44.1492 21.9173Z" fill="#C17F1F"/>
<path d="M44.1965 21.9173H43.3779C43.0811 21.9173 42.8381 21.6607 42.8381 21.3474C42.8381 21.034 43.0811 20.7776 43.3779 20.7776H44.1965C44.4934 20.7776 44.7363 21.0341 44.7363 21.3474C44.7363 21.6607 44.4934 21.9173 44.1965 21.9173Z" fill="#ECB220"/>
<path d="M106.272 17.595H104.761C104.464 17.595 104.221 17.3385 104.221 17.0252C104.221 16.7117 104.464 16.4553 104.761 16.4553H106.272C106.569 16.4553 106.812 16.7119 106.812 17.0252C106.812 17.3385 106.569 17.595 106.272 17.595Z" fill="#C17F1F"/>
<path d="M106.32 17.595H105.501C105.204 17.595 104.961 17.3385 104.961 17.0252C104.961 16.7117 105.204 16.4553 105.501 16.4553H106.32C106.617 16.4553 106.86 16.7119 106.86 17.0252C106.859 17.3385 106.617 17.595 106.32 17.595Z" fill="#ECB220"/>
<path d="M63.8845 12.5082L67.3089 4.55085C67.9596 3.05034 69.4163 2.12614 70.9763 2.22726C73.7893 2.40959 78.4694 2.86138 82.9504 3.96843C83.4465 4.09102 83.9011 4.35543 84.26 4.73754L89.8502 10.9504H80.7827L74.8843 12.6144L63.8845 12.5082Z" fill="#19283B"/>
<path d="M64.4482 12.1288L67.641 4.70989C68.1955 3.43117 69.4138 2.60425 70.7444 2.60425C70.8141 2.60425 70.8841 2.60652 70.9545 2.61106C73.9866 2.80753 78.5147 3.26736 82.8677 4.34279C83.3014 4.45002 83.6936 4.68003 84.0019 5.00818L89.0018 10.5654H80.7352L74.8383 12.2289L64.4482 12.1288Z" fill="#56768B"/>
<path d="M69.2654 6.92505H66.6878L64.4482 12.129L72.0762 12.2025V9.89306C72.076 8.25389 70.8176 6.92505 69.2654 6.92505Z" fill="#466677"/>
<path d="M66.2627 34.5217C66.7861 24.4654 64.8057 18.349 64.7887 18.3032L63.9747 12.4941L63.7947 12.5223L64.6129 18.349C64.6336 18.4117 66.6038 24.501 66.0804 34.5217H66.2627Z" fill="#7A1832"/>
<path d="M80.8668 10.9133L80.6985 10.9874L82.3095 15.0675C82.3467 15.4819 83.1117 24.5276 80.6077 34.5132C80.6709 34.5116 80.7339 34.5113 80.7972 34.5092C83.3383 24.3292 82.4992 15.1358 82.4894 15.0341L80.8668 10.9133Z" fill="#7A1832"/>
<path d="M94.2103 14.4192C95.0538 14.4192 95.7377 13.6111 95.7377 12.6142C95.7377 11.6172 95.0538 10.8091 94.2103 10.8091C93.3667 10.8091 92.6829 11.6172 92.6829 12.6142C92.6829 13.6111 93.3667 14.4192 94.2103 14.4192Z" fill="#263C54"/>
<path d="M94.1031 14.0909C94.78 14.0909 95.3287 13.4298 95.3287 12.6143C95.3287 11.7988 94.78 11.1377 94.1031 11.1377C93.4262 11.1377 92.8774 11.7988 92.8774 12.6143C92.8774 13.4298 93.4262 14.0909 94.1031 14.0909Z" fill="#19283B"/>
<path d="M46.8289 32.9993C46.8713 32.9011 46.9097 32.8003 46.9431 32.6964C49.8737 23.6006 51.3623 18.7891 59.2549 20.1632C62.7023 20.7634 64.2101 24.3392 64.7644 28.0683H64.7646C64.7646 28.0683 64.105 18.396 56.603 18.396C49.1015 18.396 48.8844 22.1113 46.8289 32.9993Z" fill="#EF3F1D"/>
<path d="M95.9559 18.7095C88.2602 18.7095 88.0376 22.4248 85.929 33.3127C85.9724 33.2146 86.3346 33.2149 86.3689 33.1112C89.3753 24.0154 90.5796 19.1026 98.6763 20.4768C101.761 21.0004 103.332 23.7877 104.06 26.9659L104.117 26.9453C103.585 24.2515 101.782 18.7095 95.9559 18.7095Z" fill="#EF3F1D"/>
<path d="M80.4804 10.8976L78.0515 3.29954L78.5478 3.1228L80.9766 10.7207L80.4804 10.8976Z" fill="#19283B"/>
<path d="M70.7939 13.3137H68.7373C68.0738 13.3137 67.5361 12.776 67.5361 12.1125V11.8689C67.5361 11.2054 68.0738 10.6677 68.7373 10.6677H70.7939C71.4573 10.6677 71.9951 11.2054 71.9951 11.8689V12.1125C71.9951 12.7758 71.4573 13.3137 70.7939 13.3137Z" fill="#A31332"/>
<path d="M69.9101 13.3137H67.8535C67.1901 13.3137 66.6523 12.776 66.6523 12.1125V11.8689C66.6523 11.2054 67.1901 10.6677 67.8535 10.6677H69.9101C70.5735 10.6677 71.1113 11.2054 71.1113 11.8689V12.1125C71.1113 12.7758 70.5735 13.3137 69.9101 13.3137Z" fill="#FF6333"/>
<path d="M68.6904 12.5202L67.2219 15.206C67.052 15.5167 66.6758 15.623 66.3817 15.4437L66.3358 15.4157C66.0415 15.2364 65.9407 14.8393 66.1106 14.5286L67.5792 11.8428L68.6904 12.5202Z" fill="#FF6333"/>
<path d="M36.6102 32.9991H32.3963C31.7825 32.9991 31.2849 32.5015 31.2849 31.8877V31.6622C31.2849 31.0483 31.7825 30.5508 32.3963 30.5508H36.6102C37.2241 30.5508 37.7216 31.0483 37.7216 31.6622V31.8877C37.7216 32.5015 37.2239 32.9991 36.6102 32.9991Z" fill="#0C1723"/>
<path d="M10.055 32.9991H5.84115C5.22729 32.9991 4.72974 32.5015 4.72974 31.8877V31.6622C4.72974 31.0483 5.22729 30.5508 5.84115 30.5508H10.055C10.6689 30.5508 11.1665 31.0483 11.1665 31.6622V31.8877C11.1666 32.5015 10.6689 32.9991 10.055 32.9991Z" fill="#0C1723"/>
<path d="M80.5259 15.586H77.4561C77.1731 15.586 76.9438 15.3567 76.9438 15.074V14.97C76.9438 14.6871 77.1731 14.458 77.4561 14.458H80.5259C80.8088 14.458 81.0379 14.6873 81.0379 14.97V15.074C81.0379 15.3567 80.8086 15.586 80.5259 15.586Z" fill="#A31332"/>
<path d="M80.5036 14.4578H79.8127C80.1077 14.4578 80.347 14.7103 80.347 15.0219C80.347 15.3334 80.1077 15.5859 79.8127 15.5859H80.5036C80.7986 15.5859 81.0378 15.3334 81.0378 15.0219C81.0378 14.7103 80.7988 14.4578 80.5036 14.4578Z" fill="#7A1832"/>
<path d="M80.595 15.1265H77.3255C77.2237 15.1265 77.1411 15.0439 77.1411 14.9423V14.9049C77.1411 14.8031 77.2237 14.7205 77.3255 14.7205H80.595C80.6968 14.7205 80.7792 14.8031 80.7792 14.9049V14.9423C80.7794 15.0439 80.6968 15.1265 80.595 15.1265Z" fill="#19283B"/>
</svg>
